<?xml version="1.0" standalone="no"?>
<!DOCTYPE svg PUBLIC "-//W3C//DTD SVG 20010904//EN"
 "http://www.w3.org/TR/2001/REC-SVG-20010904/DTD/svg10.dtd">
<svg version="1.0" xmlns="http://www.w3.org/2000/svg"
 width="2500.000000pt" height="2500.000000pt" viewBox="0 0 2500.000000 2500.000000"
 preserveAspectRatio="xMidYMid meet">

<g transform="translate(0.000000,2500.000000) scale(0.100000,-0.100000)"
fill="#000000" stroke="none">
<path d="M13351 22128 c-17 -11 -31 -23 -32 -26 -3 -28 -9 -46 -18 -55 -12
-12 -15 5 -11 51 1 21 -2 23 -37 20 -30 -2 -37 -7 -35 -21 2 -10 -2 -44 -9
-75 -8 -40 -20 -64 -42 -85 -36 -34 -62 -29 -54 10 3 15 -2 49 -11 75 -14 45
-17 48 -49 48 -40 0 -56 -26 -29 -46 23 -16 47 -139 35 -171 -20 -53 -49 -10
-49 73 0 65 -7 64 -29 -3 -25 -74 -41 -67 -41 17 0 53 -3 71 -12 67 -10 -3
-12 -33 -9 -120 3 -102 1 -118 -13 -123 -26 -10 -38 9 -45 73 -6 56 -7 58 -33
55 -29 -3 -98 -65 -98 -88 0 -25 19 -24 33 3 l14 27 8 -23 c4 -13 4 -49 -1
-80 -4 -31 -7 -59 -6 -63 9 -41 9 -114 -1 -129 -10 -16 -13 -13 -24 29 -7 26
-12 65 -13 87 0 29 -6 44 -20 53 -11 7 -20 19 -20 27 0 8 -7 15 -15 15 -8 0
-15 -6 -15 -14 0 -8 -5 -16 -10 -18 -6 -2 -13 -42 -16 -88 -2 -47 -10 -105
-18 -130 l-13 -44 -12 36 c-13 40 -13 143 0 170 7 13 5 15 -11 11 -30 -8 -40
-54 -33 -164 6 -96 5 -101 -13 -97 -14 2 -20 13 -22 41 -2 23 -8 37 -17 37
-17 0 -27 -41 -19 -88 4 -28 2 -41 -10 -51 -13 -11 -16 -9 -21 16 -13 57 -16
60 -30 33 -8 -14 -14 -46 -15 -71 0 -72 -11 -111 -32 -117 -21 -5 -27 -25 -30
-102 -2 -35 -7 -54 -15 -53 -19 4 -30 -19 -47 -97 -13 -54 -15 -95 -11 -146 6
-60 5 -73 -9 -81 -23 -13 -37 -106 -30 -191 5 -57 4 -76 -8 -90 -13 -14 -15
-50 -14 -212 1 -110 -3 -202 -8 -211 -22 -38 48 -307 101 -388 8 -13 24 -46
34 -75 l19 -51 -6 45 c-3 25 -5 56 -4 70 1 14 2 75 2 135 l1 110 14 -50 c23
-87 28 -98 39 -102 6 -2 14 11 18 28 9 47 25 25 36 -51 11 -80 20 -88 20 -19
0 50 12 150 26 207 3 16 10 22 19 18 12 -4 15 8 15 69 0 42 4 75 10 75 16 0
30 -37 31 -82 0 -24 4 -52 8 -62 12 -32 24 -1 16 44 -8 49 6 52 28 5 45 -95
60 2 32 210 -18 138 -19 178 -3 173 14 -5 23 -47 47 -236 9 -73 21 -133 26
-133 18 -1 25 84 15 166 -13 106 -13 338 0 330 6 -3 10 -30 10 -58 0 -29 5
-83 10 -122 5 -38 16 -122 25 -185 26 -193 55 -244 55 -96 0 85 12 142 29 132
4 -3 14 -33 20 -66 13 -65 25 -71 35 -15 4 19 11 35 15 35 8 0 12 -17 46 -197
8 -45 22 -96 30 -115 l16 -33 -5 30 c-11 70 -18 305 -8 305 5 0 17 -20 26 -45
10 -25 21 -45 26 -45 10 0 20 51 20 104 1 22 7 63 14 91 l13 50 7 -80 c14
-159 29 -176 39 -45 9 117 23 133 31 34 10 -123 17 -164 26 -164 4 0 15 19 24
41 10 23 21 38 25 33 10 -11 31 -139 31 -188 0 -20 5 -36 10 -36 6 0 10 19 10
43 0 63 17 82 26 29 16 -101 34 -22 34 151 0 99 8 117 36 80 11 -16 13 -13 19
23 8 45 20 72 30 62 3 -3 13 -55 21 -116 20 -157 33 -180 33 -64 1 50 5 92 10
92 5 0 16 -35 26 -77 9 -43 22 -94 29 -113 8 -19 17 -73 21 -119 4 -47 11 -78
15 -70 4 8 12 68 19 134 14 146 42 327 52 339 4 4 10 -18 13 -50 3 -33 11 -84
17 -114 5 -30 14 -86 19 -125 11 -80 38 -151 53 -136 5 5 14 69 19 143 7 91
15 138 25 150 8 9 20 43 27 75 20 103 31 67 36 -119 5 -166 13 -221 24 -167
20 95 23 104 37 101 15 -2 35 66 54 182 8 50 25 30 25 -29 0 -22 5 -56 10 -75
6 -19 11 -79 12 -132 1 -75 4 -95 14 -87 6 5 15 29 18 54 4 24 15 68 25 97 10
29 24 93 31 142 8 49 16 82 19 73 3 -9 6 -91 5 -182 0 -91 3 -165 7 -165 4 0
12 23 18 51 6 28 20 63 30 78 11 15 30 58 43 96 l23 70 3 -49 c2 -26 -2 -78
-8 -115 -17 -97 -40 -264 -39 -281 1 -27 38 91 45 142 9 67 24 71 25 6 1 -29
4 -64 8 -78 7 -24 8 -24 20 13 7 20 17 37 22 37 25 0 22 -77 -13 -293 -9 -60
-9 -80 0 -89 9 -9 12 -3 12 28 0 22 9 71 19 109 11 39 21 99 24 135 10 126 35
220 57 220 4 0 2 -32 -3 -71 -11 -74 -2 -103 25 -81 9 7 18 6 33 -4 17 -12 19
-25 16 -97 -1 -45 -6 -100 -11 -122 -14 -65 -18 -122 -10 -136 10 -14 16 19
24 122 8 111 46 164 46 66 0 -64 8 -76 31 -45 l18 23 11 -30 c8 -21 8 -51 1
-110 -24 -181 -24 -173 -8 -145 8 14 20 50 27 80 7 30 23 91 36 134 13 44 24
87 24 97 0 10 5 30 11 46 l12 28 7 -25 c5 -14 8 -68 9 -120 1 -120 -22 -248
-127 -695 -17 -71 -36 -161 -42 -200 -16 -99 -25 -119 -53 -111 -96 29 -259
38 -511 30 -170 -6 -201 -9 -216 -24 -14 -14 -19 -43 -24 -136 -4 -66 -11
-193 -16 -284 -5 -91 -15 -250 -21 -355 -12 -210 -27 -341 -60 -497 -30 -146
-57 -295 -75 -423 -8 -60 -22 -141 -29 -180 -8 -38 -22 -122 -30 -185 -9 -63
-20 -142 -26 -175 -22 -137 -38 -244 -44 -310 -3 -38 -10 -101 -16 -140 -5
-38 -18 -137 -29 -219 -11 -82 -22 -152 -25 -156 -2 -3 -16 -107 -30 -231 -14
-123 -31 -246 -38 -274 -12 -44 -18 -53 -60 -75 -69 -37 -82 -52 -65 -79 8
-13 23 -21 39 -21 15 0 32 -7 39 -15 11 -13 16 -13 39 -1 30 17 169 36 255 36
70 0 186 18 203 32 7 6 12 32 11 61 0 29 4 309 10 622 12 583 18 734 52 1265
29 439 49 922 55 1330 4 195 8 366 11 378 5 24 5 24 127 18 67 -3 140 -8 161
-12 l39 -7 -7 -133 c-7 -142 -27 -348 -52 -534 -23 -171 -34 -454 -28 -730 6
-288 8 -312 31 -303 9 4 21 -1 29 -12 17 -23 19 -228 4 -515 -14 -275 -28
-594 -40 -885 -20 -469 -42 -580 -125 -619 l-40 -19 40 -18 c22 -10 34 -19 26
-19 -11 0 -12 -14 -6 -67 4 -38 10 -72 13 -77 9 -15 21 25 21 71 1 23 5 44 10
47 5 3 32 -15 60 -41 l51 -46 0 -86 c0 -75 -11 -156 -22 -166 -1 -2 -38 -9
-81 -16 -98 -16 -107 -10 -81 60 15 44 16 55 4 90 -7 22 -16 38 -20 36 -4 -3
-10 -32 -14 -65 -12 -101 -21 -117 -70 -123 -61 -9 -213 4 -233 18 -16 12 -14
16 13 47 17 19 38 60 48 90 11 36 26 63 42 73 17 11 24 25 24 49 0 43 13 53
80 62 50 6 69 16 70 37 0 4 -44 7 -97 7 -54 -1 -114 4 -133 10 -50 15 -325 26
-333 12 -5 -6 19 -12 66 -17 173 -15 236 -48 110 -57 -56 -4 -78 -11 -125 -41
-31 -20 -76 -60 -100 -88 -76 -90 -230 -149 -399 -154 -52 -1 -105 -6 -118
-10 -37 -11 -51 10 -51 80 0 34 7 84 15 111 14 48 8 73 -14 59 -16 -9 -57 -93
-71 -145 -21 -75 -22 -77 -31 -46 -13 47 19 182 51 211 11 10 17 22 14 26 -3
5 11 9 31 9 44 0 56 22 27 53 -37 39 -41 67 -29 173 8 69 11 306 9 779 -6
1329 -8 1529 -21 1620 -6 50 -16 123 -21 163 -12 92 -35 151 -53 133 -24 -24
1 -2376 30 -2780 4 -67 3 -92 -5 -87 -25 15 -41 154 -47 406 -3 140 -10 316
-15 390 -33 481 -52 1073 -54 1645 -1 501 0 543 17 578 16 33 17 46 7 115 -6
43 -11 183 -12 310 -2 216 -3 232 -20 232 -9 0 -25 -12 -34 -26 -16 -23 -17
-64 -10 -507 5 -265 9 -792 11 -1172 3 -734 10 -1144 25 -1395 6 -85 14 -227
20 -315 9 -161 19 -209 60 -298 l22 -49 -23 -51 c-31 -72 -37 -178 -14 -251
16 -51 17 -103 12 -673 -3 -340 -11 -740 -18 -889 l-12 -272 37 -53 c20 -30
54 -76 75 -103 21 -26 60 -86 86 -132 71 -128 80 -208 78 -737 -1 -268 -6
-430 -13 -451 -14 -44 -60 -86 -104 -96 -70 -16 -82 16 -92 249 -5 114 -4 152
4 147 6 -4 14 -29 18 -56 5 -35 15 -58 34 -79 20 -20 30 -44 35 -80 13 -92 25
-66 25 53 0 113 5 146 20 146 4 0 11 -12 15 -27 l7 -28 11 25 c16 39 15 551
-1 624 -29 126 -118 278 -158 269 -15 -3 -23 3 -32 21 -15 35 -28 33 -36 -5
-8 -42 -24 -34 -71 38 -22 34 -43 62 -46 62 -3 1 -11 -10 -17 -23 -11 -25 -30
-27 -127 -11 -32 6 -44 3 -55 -10 -12 -14 -11 -28 9 -102 12 -47 20 -87 18
-89 -2 -2 -26 23 -53 56 l-49 59 -14 -27 c-8 -15 -20 -31 -27 -37 -8 -5 -15
-32 -17 -60 -4 -70 -24 -65 -64 15 -34 70 -45 63 -13 -9 11 -24 20 -48 20 -53
0 -5 14 -40 30 -78 17 -38 30 -74 30 -81 0 -21 -35 18 -60 66 -24 47 -37 55
-46 30 -8 -20 -23 -19 -47 2 -18 17 -19 17 -28 0 -6 -9 -19 -17 -30 -17 -19 0
-20 -4 -14 -50 9 -64 -5 -64 -35 0 -25 54 -50 83 -50 59 0 -13 19 -103 39
-181 12 -51 1 -48 -29 7 -14 25 -28 45 -33 45 -16 0 11 -131 46 -225 32 -85
-14 -41 -56 55 -14 30 -34 87 -46 126 -12 40 -29 78 -38 85 -15 12 -16 12 -9
-6 15 -40 20 -89 7 -81 -17 11 -36 52 -65 141 -29 88 -44 196 -49 353 -2 61
-8 107 -15 114 -20 20 -14 63 12 87 17 16 28 42 36 89 6 37 18 94 26 127 9 33
20 94 24 135 5 41 12 92 16 113 6 32 4 37 -12 37 -10 0 -28 -12 -40 -27 -21
-27 -23 -27 -42 -10 -25 23 -47 14 -68 -31 -16 -34 -17 -35 -25 -14 -7 18 -13
21 -41 16 -18 -4 -39 -12 -46 -18 -21 -20 -30 -111 -34 -325 l-3 -203 -24 -10
c-14 -5 -41 -8 -60 -6 l-35 3 2 288 3 288 -25 -16 c-14 -9 -35 -38 -48 -63
-22 -45 -23 -57 -23 -276 0 -158 -3 -230 -11 -233 -28 -9 -33 28 -35 257 l-2
235 27 58 c27 55 63 87 100 87 8 0 19 7 24 16 8 15 31 16 173 15 94 -1 176 2
192 8 l27 10 -4 121 c-3 75 -11 140 -21 171 -10 28 -15 53 -11 56 3 3 48 6
101 7 90 1 98 -1 116 -23 15 -19 19 -39 19 -107 0 -51 4 -84 10 -84 15 0 30
45 30 86 0 23 5 34 14 34 19 0 25 -20 14 -49 -5 -13 -6 -44 -2 -68 8 -52 -6
-73 -47 -73 -31 0 -53 -28 -43 -55 4 -10 -2 -24 -15 -36 -24 -23 -23 -25 32
-91 34 -41 47 -49 96 -58 122 -25 198 -43 230 -56 l34 -14 -6 37 c-4 24 -16
45 -32 56 -31 23 -32 60 -2 80 25 16 47 99 47 175 0 54 -19 142 -36 167 -22
31 -18 80 9 97 l22 15 8 504 c7 441 -6 1801 -18 1924 -2 22 -6 177 -10 345 -6
310 -18 599 -34 860 -6 80 -11 215 -12 300 -1 85 -4 168 -8 184 -3 17 -5 -667
-5 -1520 1 -852 -1 -1566 -3 -1586 -6 -43 -25 -50 -47 -15 -11 16 -14 53 -14
142 0 117 -12 633 -33 1340 -21 720 -28 939 -39 1102 -19 293 -27 596 -18 631
5 18 6 37 3 43 -4 5 -37 10 -73 11 -57 0 -231 6 -297 9 -41 2 -182 -20 -234
-36 l-54 -17 6 -351 c3 -194 11 -496 17 -672 11 -327 4 -612 -23 -935 -8 -101
-12 -453 -12 -1166 0 -1000 0 -1021 20 -1062 14 -29 26 -42 40 -42 37 0 118
26 193 61 l73 34 -5 50 c-7 67 -23 502 -42 1125 -27 913 -33 1121 -44 1340
-23 476 -40 942 -47 1262 l-6 337 29 11 c37 14 91 4 98 -18 18 -65 42 -348 56
-672 18 -418 46 -896 60 -1050 14 -145 54 -738 81 -1185 6 -99 13 -182 16
-185 10 -8 -6 591 -22 850 -25 397 -41 733 -70 1455 -8 198 -20 459 -26 581
-7 122 -9 228 -6 238 7 18 52 22 77 6 9 -5 19 -5 27 1 20 17 57 6 70 -22 16
-33 42 -987 72 -2689 10 -521 10 -525 -11 -554 -27 -37 -21 -106 13 -142 22
-23 22 -27 9 -57 -11 -24 -16 -106 -20 -342 -3 -170 -7 -311 -8 -312 -15 -14
-66 -45 -77 -47 -8 -1 -22 -9 -32 -18 -13 -11 -50 -17 -133 -21 -120 -6 -150
-12 -150 -29 0 -5 -8 -17 -19 -26 -12 -11 -22 -41 -29 -86 -6 -37 -13 -70 -16
-73 -14 -14 -26 15 -26 65 -1 48 -2 54 -12 37 -6 -11 -21 -30 -33 -43 -13 -13
-26 -42 -29 -67 -9 -54 -31 -81 -73 -90 -49 -10 -66 25 -71 140 -4 84 -2 95
17 114 26 26 26 27 -4 63 -16 19 -25 42 -25 63 0 19 -4 56 -10 82 -14 69 -40
461 -40 606 0 67 -7 241 -15 387 -9 146 -20 560 -25 920 -19 1274 -30 1757
-45 1930 -8 96 -15 179 -15 184 0 11 -93 1 -120 -14 -20 -11 -21 -17 -17 -223
2 -117 9 -284 15 -372 6 -88 16 -447 22 -798 14 -706 8 -855 -25 -703 -9 41
-25 15 -25 -40 0 -60 -12 -134 -21 -134 -4 0 -11 9 -14 20 -6 18 -8 18 -21 5
-18 -18 -30 -154 -38 -460 -11 -380 -20 -444 -69 -528 -14 -23 -39 -55 -56
-71 -55 -53 -42 -66 117 -122 28 -10 52 -23 52 -29 0 -26 -35 -55 -85 -71
-120 -38 -119 -87 2 -91 57 -2 70 -6 85 -25 29 -37 23 -89 -13 -124 -17 -16
-51 -57 -75 -92 -25 -34 -59 -69 -75 -78 -44 -22 -213 -40 -244 -26 -24 11
-25 15 -25 103 0 81 -3 98 -25 136 -31 52 -50 57 -40 11 11 -51 11 -122 0
-128 -11 -6 -46 53 -72 119 -16 42 -16 44 2 57 23 17 72 18 77 2 4 -10 10 -10
33 0 27 12 27 14 19 65 -8 50 -9 81 -5 157 1 19 -3 103 -9 185 -6 83 -17 256
-25 385 -20 308 -37 519 -94 1145 -16 182 -35 402 -41 490 -6 88 -16 189 -21
225 -17 117 -42 379 -59 635 -21 290 -36 414 -54 433 -16 19 -158 39 -321 47
-38 2 -73 3 -77 4 -4 1 -8 22 -10 49 l-3 47 -10 -45 c-12 -49 -16 -52 -129
-66 -36 -4 -57 -14 -78 -34 -26 -26 -28 -34 -28 -107 0 -94 25 -524 45 -788
49 -634 94 -1706 95 -2255 0 -115 7 -236 15 -295 8 -55 15 -122 15 -149 l0
-49 103 6 c56 3 110 8 121 13 20 8 20 17 -4 239 -5 50 -19 245 -30 435 -11
190 -34 543 -50 785 -29 417 -38 544 -75 990 -54 659 -84 1149 -71 1162 3 3
28 8 56 11 64 6 116 -25 129 -78 17 -64 100 -821 116 -1065 4 -49 13 -149 20
-222 8 -73 19 -192 25 -265 5 -73 21 -266 35 -428 41 -478 77 -983 95 -1314 9
-178 10 -180 38 -210 35 -38 32 -55 -18 -94 -38 -31 -41 -32 -186 -39 l-148
-8 -7 -33 c-4 -22 -27 -52 -73 -95 -41 -39 -66 -70 -66 -83 0 -12 -6 -26 -12
-31 -14 -11 -76 -25 -123 -27 -19 -1 -30 -7 -31 -16 -1 -8 -2 -30 -2 -48 -3
-45 -24 -37 -36 12 -7 32 -5 43 14 68 12 16 19 32 15 36 -3 4 -10 0 -15 -8 -7
-11 -11 -11 -24 -1 -19 16 -23 140 -5 158 12 12 2 72 -26 158 -7 22 -18 126
-24 230 -28 460 -45 685 -76 990 -14 132 -34 353 -46 490 -36 431 -38 449 -45
473 -5 18 -9 21 -16 10 -6 -8 -8 18 -6 70 2 45 0 82 -5 82 -4 0 -6 4 -2 9 3 5
1 12 -4 15 -4 3 -11 47 -15 98 -4 51 -11 118 -16 148 -6 30 -12 116 -14 190
-3 74 -8 220 -11 323 -5 119 -3 192 3 200 5 7 11 50 11 97 1 47 2 92 3 100 3
41 -2 50 -31 50 -16 0 -42 -5 -57 -10 l-27 -11 6 -162 c14 -383 73 -1203 107
-1472 5 -44 17 -170 25 -280 13 -178 29 -334 81 -825 7 -74 25 -254 39 -400
23 -238 32 -323 52 -483 4 -39 10 -50 29 -58 28 -10 28 -7 9 -53 -8 -20 -22
-67 -30 -105 -15 -73 -11 -102 21 -157 22 -38 14 -70 -15 -54 -14 7 -21 23
-23 50 -4 51 -22 53 -26 3 -3 -52 17 -89 49 -86 69 6 85 -16 47 -67 -20 -27
-21 -36 -14 -142 8 -132 34 -325 48 -351 7 -14 19 -17 46 -15 37 3 37 3 37 48
-1 25 -12 124 -25 220 -27 200 -29 304 -4 331 9 10 14 25 11 33 -12 31 18 39
103 26 62 -10 97 -10 157 -1 43 6 96 13 118 14 l40 2 5 129 5 128 73 4 c96 4
118 -5 143 -62 13 -29 33 -53 55 -66 24 -14 37 -31 44 -59 12 -43 7 -59 -17
-59 -9 0 -13 6 -9 15 7 20 -32 41 -47 26 -9 -9 -8 -17 1 -31 6 -11 12 -22 12
-24 0 -6 -46 -16 -128 -26 -42 -5 -116 -17 -164 -26 -82 -16 -87 -18 -82 -39
4 -18 -5 -31 -45 -65 -29 -25 -55 -57 -61 -76 -7 -19 -19 -38 -27 -43 -13 -7
-16 -36 -20 -162 -2 -89 1 -160 6 -169 8 -11 33 -14 118 -13 122 2 173 9 190
26 9 9 9 57 -2 212 -8 110 -17 209 -19 220 -9 38 7 46 98 52 94 5 116 -3 116
-41 0 -11 12 -46 27 -76 25 -51 27 -64 28 -189 l1 -134 -30 -16 c-16 -9 -38
-25 -50 -36 -15 -15 -41 -21 -111 -26 -49 -3 -159 -20 -242 -38 -85 -17 -183
-31 -222 -31 -38 0 -84 -7 -104 -15 -20 -8 -48 -15 -63 -15 -26 0 -26 -1 -21
-47 3 -27 16 -153 28 -280 13 -128 27 -227 31 -220 4 6 8 8 9 2 0 -5 2 -17 4
-25 16 -65 25 -159 28 -301 2 -91 7 -171 12 -178 4 -7 8 -106 8 -220 1 -113 2
-178 4 -143 2 34 8 62 13 62 6 0 10 -1 11 -2 12 -56 37 -652 28 -694 -3 -16
-2 -42 3 -58 23 -87 40 -308 63 -818 10 -219 12 -353 6 -369 -7 -18 -10 -20
-14 -9 -3 8 -17 200 -31 425 -35 554 -35 555 -52 555 -7 0 -21 -14 -30 -32
-15 -29 -15 -60 -4 -362 16 -456 18 -792 4 -806 -9 -9 -14 9 -19 67 -5 43 -8
83 -6 90 1 6 -4 15 -10 19 -7 4 -10 2 -7 -7 8 -22 -20 -69 -42 -69 -16 0 -17
-4 -10 -29 7 -26 5 -30 -27 -45 -20 -9 -37 -16 -38 -14 -18 20 -77 230 -269
968 -158 609 -499 1673 -772 2415 -71 191 -374 1099 -374 1119 0 32 -79 253
-107 301 -36 61 -73 86 -103 67 -11 -6 -25 -12 -32 -12 -6 0 -19 -7 -29 -16
-32 -29 -46 -11 -53 68 -4 40 -12 88 -17 106 -6 18 -8 36 -4 40 9 10 25 -20
25 -49 0 -15 6 -32 14 -38 7 -6 16 -25 20 -41 3 -17 10 -30 16 -30 14 0 13 14
-5 56 -8 20 -18 78 -21 130 -7 92 -6 94 15 94 11 0 21 -3 21 -7 0 -5 13 -15
29 -24 22 -13 33 -32 50 -89 12 -40 25 -70 28 -67 2 3 -4 36 -15 74 -21 72
-59 235 -73 318 -4 28 -17 84 -28 125 -11 41 -32 120 -46 175 -15 55 -40 141
-55 190 -83 265 -123 394 -160 520 -23 77 -58 181 -77 230 -20 50 -51 135 -70
190 -67 200 -146 443 -184 570 -22 72 -60 189 -85 260 -25 72 -92 267 -149
435 -125 371 -158 454 -181 458 -14 3 -16 -2 -10 -35 4 -21 17 -58 28 -83 26
-59 128 -369 163 -495 15 -55 36 -129 47 -165 11 -36 28 -103 39 -150 10 -47
23 -96 29 -110 5 -14 14 -45 20 -70 13 -52 103 -294 125 -337 18 -36 89 -257
109 -343 19 -82 148 -468 191 -575 56 -137 132 -381 206 -660 48 -183 56 -237
41 -268 -7 -12 -16 -34 -22 -49 -5 -16 -14 -28 -19 -28 -5 0 -19 29 -31 65
-12 36 -23 65 -25 65 -2 0 -1 -28 2 -62 l6 -63 -23 28 c-12 15 -33 69 -46 120
-13 50 -35 133 -50 182 -48 167 -65 237 -61 249 8 19 47 -77 47 -114 0 -20 6
-44 14 -55 7 -11 32 -77 56 -147 23 -71 44 -128 47 -128 9 0 -7 67 -38 158
-16 48 -42 134 -58 192 -50 180 -66 231 -74 224 -4 -4 -7 -23 -8 -43 0 -33 -1
-34 -10 -12 -5 14 -12 57 -14 98 -2 40 -11 83 -19 95 -8 13 -26 66 -40 118
-14 52 -44 148 -66 214 -22 65 -40 125 -40 132 0 7 -24 98 -54 202 -30 104
-68 238 -84 298 -16 60 -53 172 -81 249 -29 77 -67 185 -86 240 -44 132 -120
333 -128 342 -12 11 -8 -31 8 -88 38 -134 156 -514 215 -689 80 -242 102 -317
98 -337 -6 -31 -65 142 -318 942 -43 138 -116 360 -160 495 -56 169 -82 262
-83 299 l-2 54 39 13 c29 11 42 11 53 3 7 -7 16 -10 18 -7 3 3 1 198 -4 434
-9 413 -15 494 -42 494 -4 0 -14 18 -20 40 -11 36 -29 55 -29 31 0 -5 -5 -22
-11 -37 l-10 -28 -19 29 c-10 16 -22 46 -25 67 -9 49 -22 57 -36 21 -14 -36
-22 -21 -39 72 -8 39 -18 76 -23 83 -19 25 -35 -8 -40 -86 -9 -146 -26 -201
-45 -151 -20 52 -42 127 -58 199 -23 103 -29 73 -10 -55 9 -58 16 -112 16
-120 0 -23 -17 -18 -23 8 -4 12 -13 31 -21 42 -15 19 -15 18 -9 -15 3 -19 12
-47 19 -62 16 -30 19 -112 5 -104 -5 4 -12 24 -16 45 -4 22 -13 42 -21 45 -11
4 -14 -6 -14 -51 0 -68 -8 -62 -44 28 -18 45 -27 89 -29 140 -2 41 -9 83 -16
94 -11 17 -11 13 -7 -29 7 -57 -3 -176 -14 -176 -10 0 -30 56 -30 83 0 10 -15
42 -32 70 -26 39 -34 46 -36 30 -2 -11 6 -48 17 -81 12 -34 21 -69 21 -79 0
-10 10 -54 21 -98 40 -152 47 -185 39 -180 -5 3 -18 33 -29 68 -20 60 -72 137
-92 137 -18 0 -10 -126 12 -174 11 -26 19 -59 17 -74 -3 -25 -5 -24 -41 30
-46 70 -57 78 -57 39 0 -32 -30 -61 -62 -61 -11 0 -18 -8 -18 -20 0 -11 -6
-20 -13 -20 -24 0 -47 35 -47 70 0 35 -51 133 -58 112 -2 -7 7 -45 21 -85 14
-39 35 -106 48 -147 12 -41 42 -112 66 -158 24 -45 43 -90 41 -100 -2 -10 -24
25 -51 82 -26 55 -63 119 -83 143 -35 43 -36 43 -59 25 -14 -9 -25 -20 -25
-25 0 -4 13 -26 30 -49 17 -22 30 -51 30 -63 0 -31 43 -143 79 -207 17 -29 37
-78 45 -108 8 -30 29 -99 46 -153 17 -53 28 -102 24 -108 -8 -13 -59 132 -70
196 -8 48 -25 84 -70 146 -18 25 -48 72 -66 104 -30 52 -37 58 -70 61 -37 3
-37 3 -40 -39 -3 -40 -4 -42 -32 -39 -23 3 -27 0 -20 -10 10 -13 21 -30 104
-161 23 -37 45 -66 47 -63 3 2 -1 14 -7 26 -9 18 -9 21 1 18 12 -4 89 -122 89
-137 0 -4 11 -17 25 -29 14 -12 25 -31 25 -42 0 -10 8 -36 17 -57 10 -21 18
-39 18 -40 1 -1 52 18 115 43 129 50 156 51 115 3 -14 -18 -25 -37 -23 -43 2
-6 29 -90 60 -186 31 -96 81 -256 111 -355 31 -99 90 -292 132 -430 43 -137
119 -387 170 -555 232 -761 330 -1051 432 -1283 94 -212 134 -272 213 -326 80
-53 84 -44 35 68 -83 188 -179 477 -445 1331 -131 421 -245 778 -275 860 -40
108 -222 668 -255 783 -17 60 -30 119 -28 130 4 26 53 46 116 46 50 1 35 28
169 -304 102 -254 152 -387 194 -520 17 -55 63 -190 101 -300 39 -110 134
-393 213 -630 132 -399 300 -882 358 -1035 33 -86 69 -158 128 -255 56 -92 73
-139 59 -165 -10 -19 -140 -84 -211 -106 -39 -12 -50 -21 -70 -59 -17 -32 -44
-59 -94 -92 -67 -46 -119 -105 -112 -127 9 -28 254 -4 286 28 13 14 11 21 -13
66 -39 71 -33 109 18 134 36 18 45 18 120 6 45 -7 93 -19 108 -26 56 -29 87
-123 52 -159 -20 -19 -95 -58 -146 -74 -21 -7 -48 -25 -60 -41 -13 -15 -58
-49 -101 -75 -42 -26 -82 -55 -87 -65 -15 -29 -12 -142 5 -164 8 -11 15 -28
15 -38 0 -9 9 -22 19 -28 22 -11 105 -13 176 -4 46 7 47 8 42 38 -2 17 -18 76
-36 131 -39 125 -40 152 -5 165 41 16 109 12 168 -11 43 -15 60 -18 75 -9 17
8 23 6 35 -12 15 -23 66 -189 66 -214 0 -7 -15 -24 -32 -37 -42 -31 -291 -132
-501 -202 -88 -30 -165 -59 -170 -64 -7 -7 -1 -14 15 -20 26 -10 78 -69 78
-88 0 -5 7 -25 16 -44 16 -34 38 -82 66 -149 9 -19 19 -51 22 -70 4 -19 23
-82 41 -140 70 -221 95 -307 106 -365 6 -33 18 -75 26 -94 8 -19 25 -66 38
-105 13 -39 28 -84 34 -101 13 -35 71 -267 78 -310 3 -16 11 -44 19 -62 8 -17
14 -38 14 -47 0 -8 6 -30 14 -48 24 -57 81 -276 91 -346 3 -24 12 -54 21 -67
9 -13 13 -29 9 -35 -3 -5 -2 -10 4 -10 5 0 12 -19 16 -41 4 -23 14 -57 21 -75
8 -18 14 -49 14 -67 0 -19 9 -46 20 -60 11 -14 24 -47 29 -74 6 -27 17 -69 26
-94 34 -91 55 -161 55 -183 0 -46 38 -169 70 -228 6 -10 10 -28 10 -40 0 -20
13 -59 65 -198 7 -19 15 -50 18 -68 3 -19 12 -41 20 -50 18 -21 28 -60 34
-132 2 -30 11 -70 19 -88 8 -18 16 -56 18 -85 3 -63 24 -170 41 -217 8 -19 16
-64 19 -100 2 -36 8 -73 12 -83 5 -14 -2 -21 -33 -33 -37 -15 -80 -64 -67 -77
8 -8 -6 -47 -16 -47 -10 0 -30 62 -119 380 -33 118 -105 373 -160 566 -134
468 -271 976 -381 1409 -28 110 -75 288 -105 395 -29 107 -70 267 -90 355 -21
88 -59 225 -86 305 -78 238 -84 250 -125 250 -19 0 -25 8 -34 43 -18 73 -120
271 -120 233 0 -3 15 -43 34 -89 19 -45 40 -103 46 -129 7 -26 18 -53 26 -59
17 -14 18 -45 3 -55 -16 -10 -34 15 -48 66 -7 25 -33 91 -57 147 -24 56 -44
110 -44 120 0 10 -4 25 -10 33 -5 9 -5 19 1 26 7 9 5 22 -5 42 -16 31 -34 42
-67 42 -16 0 -19 7 -19 54 0 30 -4 57 -9 60 -5 3 -28 -12 -52 -33 -59 -55 -71
-46 -99 76 -25 111 -33 129 -52 124 -29 -8 -41 -5 -51 11 -15 23 5 43 50 53
30 6 33 3 52 -33 11 -22 29 -42 41 -45 17 -4 20 0 20 28 0 20 -6 35 -15 39 -8
3 -15 16 -15 29 0 31 -29 89 -41 82 -5 -4 -9 -14 -9 -23 0 -9 -5 -24 -10 -32
-9 -13 -14 -11 -35 13 -15 17 -25 22 -25 14 0 -8 -9 -22 -20 -32 -20 -18 -21
-18 -45 5 -13 12 -32 46 -41 74 -9 28 -48 132 -86 231 -39 99 -100 268 -138
375 -37 107 -78 222 -90 255 -96 257 -267 788 -403 1245 -75 252 -113 373
-174 550 -35 102 -79 233 -98 291 -19 59 -41 123 -49 144 -21 50 -20 75 2 75
14 0 24 -18 41 -70 12 -38 26 -72 31 -75 14 -9 12 5 -10 70 -11 32 -20 66 -20
76 0 19 46 49 75 49 20 0 19 29 -5 250 -11 96 -26 274 -35 395 -26 366 -33
393 -161 625 -107 196 -135 254 -130 274 3 10 -2 33 -11 50 -9 16 -20 57 -24
91 -19 127 -30 242 -30 290 1 28 -5 73 -12 100 -8 28 -12 66 -9 86 2 22 -3 49
-13 68 -16 31 -17 32 -40 17 -21 -14 -24 -13 -40 4 -10 11 -22 17 -27 14 -5
-3 -21 4 -34 17 -21 20 -26 21 -34 9 -5 -8 -10 -21 -10 -27 0 -20 -18 -15 -30
7 -6 11 -14 18 -18 16 -5 -3 -14 -1 -22 4 -9 6 -18 3 -26 -7 -10 -15 -14 -14
-40 6 -23 18 -36 21 -64 16 -19 -4 -40 -11 -46 -16 -7 -6 -16 -4 -24 6 -19 22
-30 8 -30 -38 -1 -41 -1 -42 -18 -21 -9 12 -21 29 -27 37 -7 11 -19 14 -37 10
-24 -4 -26 -8 -17 -30 11 -29 12 -63 2 -63 -5 0 -23 25 -41 55 -18 30 -38 55
-43 55 -5 0 -8 -23 -7 -52 3 -47 1 -53 -18 -56 -17 -2 -27 9 -50 55 -16 32
-33 58 -39 58 -5 0 -11 -21 -13 -47 -3 -53 -13 -61 -30 -24 -6 14 -20 30 -32
36 -19 10 -20 8 -20 -33 0 -26 -6 -49 -14 -56 -11 -9 -12 -20 -5 -44 11 -40
12 -67 0 -67 -11 0 -71 61 -71 72 0 15 -55 87 -67 88 -16 0 -16 -4 0 -60 15
-49 12 -94 -4 -69 -6 10 -9 11 -9 1 0 -7 9 -20 20 -29 21 -19 54 -105 47 -126
-2 -6 -16 12 -31 41 -28 55 -76 87 -106 72 -9 -5 -26 -2 -40 6 -52 28 -52 16
-3 -88 20 -43 33 -81 29 -85 -3 -4 -26 13 -50 36 -38 37 -49 43 -71 37 -26 -7
-27 -9 -21 -53 5 -39 4 -44 -9 -33 -8 7 -22 9 -31 6 -13 -5 -15 -16 -9 -66 8
-71 -1 -76 -40 -19 -16 22 -51 58 -79 81 -66 52 -71 34 -20 -62 21 -38 34 -73
30 -77 -5 -4 -35 21 -68 57 -69 74 -70 61 -7 -58 47 -88 49 -102 8 -68 -39 33
-59 33 -59 2 0 -14 -4 -28 -10 -31 -11 -7 -41 7 -65 31 -9 9 -18 14 -21 11 -9
-9 15 -119 37 -175 23 -56 18 -81 -9 -46 -10 12 -32 41 -51 65 -32 42 -33 43
-28 14 4 -16 9 -41 13 -55 6 -23 3 -21 -37 16 -41 38 -47 41 -92 36 -26 -2
-47 -9 -47 -15 0 -6 14 -34 30 -64 31 -55 40 -87 18 -65 -18 18 -25 15 -32
-13 -9 -34 -33 -32 -80 6 l-38 32 7 -46 c6 -39 4 -47 -13 -56 -11 -6 -22 -8
-25 -4 -18 17 -16 -32 2 -73 33 -73 26 -82 -24 -35 -59 55 -77 54 -56 -1 22
-60 22 -78 2 -78 -11 0 -23 5 -26 10 -3 6 -15 10 -27 10 -18 0 -19 -4 -14 -37
13 -77 12 -88 -11 -98 -26 -11 -28 -27 -12 -74 15 -42 7 -48 -30 -20 -17 12
-34 20 -37 16 -4 -4 3 -30 15 -58 30 -73 27 -111 -7 -77 -19 19 -25 2 -11 -36
10 -28 10 -39 1 -48 -7 -7 -12 -25 -12 -40 0 -21 -5 -28 -20 -28 -21 0 -29
-33 -10 -45 5 -3 9 -32 7 -63 -1 -49 3 -64 30 -107 18 -27 30 -51 28 -54 -3
-2 -32 10 -65 28 -33 18 -60 29 -60 25 0 -3 17 -29 37 -56 30 -41 34 -54 25
-68 -7 -12 -8 -29 -2 -51 5 -19 12 -46 15 -60 2 -15 21 -47 41 -70 20 -24 42
-56 48 -71 15 -34 222 -217 255 -225 39 -9 102 -56 167 -123 33 -33 68 -63 78
-66 27 -9 107 -67 193 -139 39 -34 93 -72 118 -85 61 -31 119 -104 104 -131
-5 -11 -14 -19 -18 -19 -5 0 -36 29 -68 65 -47 53 -65 66 -96 71 l-39 6 7 -34
c4 -18 20 -53 36 -77 16 -25 29 -54 29 -65 -1 -21 -1 -21 -15 -1 -121 164
-263 325 -287 325 -5 0 2 -15 16 -33 15 -19 26 -39 26 -45 0 -24 -37 -11 -70
23 -19 19 -37 35 -42 35 -13 0 30 -111 84 -218 42 -82 50 -116 21 -90 -10 9
-30 22 -45 29 -37 20 -159 164 -204 243 -21 36 -42 66 -46 66 -15 0 -8 -25 16
-61 13 -19 34 -57 47 -85 13 -27 38 -75 56 -106 18 -31 33 -59 33 -62 0 -3
-11 -6 -24 -6 -15 0 -26 -7 -29 -20 -8 -31 -22 -24 -69 32 -63 75 -129 138
-144 138 -30 0 -6 -39 77 -128 48 -49 69 -80 69 -97 0 -35 -23 -31 -51 9 -12
18 -31 39 -41 45 -34 21 -20 -18 36 -102 79 -119 85 -161 14 -102 -16 14 -37
25 -45 25 -9 0 -38 20 -64 45 -57 54 -79 58 -79 15 0 -25 -6 -33 -35 -47 -19
-9 -35 -20 -35 -23 0 -9 63 -98 134 -190 135 -174 128 -237 -9 -81 -79 90
-145 150 -145 133 0 -6 16 -32 35 -60 36 -53 54 -102 37 -102 -5 0 -15 6 -21
14 -14 16 -69 27 -73 14 -2 -5 -16 -4 -31 1 -73 28 -66 -11 17 -99 29 -30 74
-84 100 -120 27 -36 51 -67 55 -70 4 -3 19 -26 34 -52 15 -26 82 -105 150
-176 67 -70 129 -137 137 -148 56 -73 114 -134 128 -134 20 0 90 26 187 70 80
36 96 43 373 175 114 54 212 95 225 93 16 -2 23 -12 28 -38 7 -36 31 -89 208
-453 55 -115 101 -211 101 -213 0 -7 135 -294 227 -484 87 -178 181 -386 234
-518 16 -40 43 -100 60 -134 17 -34 37 -80 45 -102 13 -38 13 -39 -2 -21 -9
11 -25 38 -36 60 -11 22 -73 130 -136 240 -153 266 -180 314 -237 420 -131
245 -199 388 -245 510 -34 93 -126 306 -195 455 -35 74 -68 152 -75 172 -15
48 -25 54 -58 33 -79 -51 -98 -93 -68 -153 7 -15 16 -63 20 -106 8 -85 21
-118 71 -181 35 -43 55 -78 55 -94 0 -6 -14 -26 -30 -44 -45 -51 -40 -68 33
-116 74 -48 116 -87 168 -158 40 -54 111 -170 160 -263 16 -30 44 -77 61 -105
47 -76 228 -393 228 -400 0 -3 11 -22 23 -43 33 -51 102 -181 225 -422 257
-506 403 -756 599 -1029 43 -59 48 -63 79 -58 23 4 37 1 47 -11 22 -25 30 -67
17 -91 -10 -19 -4 -28 55 -86 66 -65 74 -78 54 -90 -14 -9 -46 21 -53 51 -4
13 -11 24 -16 24 -19 0 -146 -68 -160 -85 -13 -15 -12 -20 9 -36 13 -11 35
-19 50 -19 14 -1 53 -7 87 -14 34 -7 70 -9 82 -5 19 7 24 2 40 -34 11 -24 32
-59 48 -78 17 -18 38 -46 47 -61 14 -23 25 -28 57 -28 31 0 40 -4 40 -17 0
-19 -46 -60 -98 -87 -50 -26 -45 -65 17 -125 46 -45 103 -124 161 -221 31 -52
74 -100 90 -100 10 0 10 3 0 15 -16 20 -6 45 19 45 22 0 30 -20 27 -65 -2 -27
-11 -34 -87 -73 -152 -76 -396 -192 -406 -192 -5 0 -18 -9 -27 -19 -17 -18
-16 -20 23 -42 23 -12 41 -28 41 -35 0 -7 3 -14 8 -16 4 -2 15 -16 24 -33 11
-20 32 -36 63 -48 67 -25 79 -39 139 -164 14 -28 32 -56 41 -61 9 -5 17 -12
16 -15 -1 -14 20 -68 38 -97 6 -8 25 -46 43 -85 18 -38 35 -72 39 -75 3 -3 11
-20 17 -38 6 -18 20 -45 30 -60 11 -15 23 -42 27 -60 4 -18 13 -45 21 -60 8
-15 14 -33 14 -40 0 -17 71 -156 82 -160 4 -2 8 -13 8 -25 1 -12 14 -44 30
-72 16 -27 33 -56 36 -63 10 -19 -15 -42 -47 -42 -22 0 -35 10 -66 55 -21 30
-41 55 -45 55 -6 0 1 -140 7 -148 3 -4 149 -26 275 -41 47 -6 159 -15 250 -21
91 -6 264 -18 384 -26 121 -8 364 -17 540 -19 177 -3 353 -7 391 -11 110 -9
1775 -5 2225 6 680 16 1346 42 1595 61 71 6 159 12 195 14 36 3 86 10 113 16
43 10 47 13 48 42 4 85 7 108 13 114 9 9 35 -28 36 -52 0 -11 5 -27 10 -35 18
-27 12 22 -10 86 -12 32 -41 140 -66 239 -26 99 -66 241 -90 315 -25 74 -53
176 -64 225 -10 50 -33 135 -50 190 -48 156 -61 197 -70 234 -5 18 -22 48 -39
65 -17 18 -31 35 -31 39 0 4 -18 47 -41 95 -23 48 -47 104 -55 125 -7 20 -36
84 -64 140 -27 57 -50 107 -50 111 0 4 20 -9 44 -28 23 -20 46 -36 50 -36 4 0
15 -7 23 -16 9 -8 23 -14 32 -11 9 3 22 6 30 8 9 3 27 -22 50 -68 20 -40 39
-73 43 -73 5 0 6 26 2 58 l-5 57 25 -27 c31 -34 32 -34 40 -3 10 38 31 21 50
-42 13 -39 21 -52 29 -44 7 7 7 21 -1 49 -16 52 -15 72 3 72 8 0 17 11 21 25
8 33 25 27 37 -11 26 -86 51 -144 63 -144 10 0 12 11 8 48 -5 44 -4 46 10 28
9 -11 16 -26 16 -34 0 -7 8 -12 18 -10 23 4 27 41 11 105 -12 51 -7 86 7 47 4
-10 15 -30 24 -44 19 -29 40 -97 40 -130 0 -13 2 -21 5 -18 6 5 14 99 15 161
0 23 4 36 10 32 6 -3 10 -13 10 -22 0 -9 16 -48 35 -87 19 -39 40 -98 46 -131
6 -33 15 -68 21 -78 7 -14 5 -23 -6 -36 -19 -21 -20 -31 -3 -31 6 0 18 -4 25
-9 17 -10 57 -193 71 -324 6 -53 16 -128 21 -165 6 -37 17 -116 25 -177 8 -60
30 -213 49 -340 36 -233 48 -318 66 -478 6 -49 18 -103 27 -120 l17 -32 11 70
11 70 21 -65 c19 -56 47 -157 83 -291 8 -30 16 -38 41 -43 45 -9 77 -7 84 4 3
5 -3 47 -14 93 -11 46 -36 182 -56 303 -20 121 -67 345 -105 499 -62 251 -196
882 -208 978 -3 28 -1 37 11 37 25 0 38 -26 48 -95 5 -37 11 -71 14 -75 5 -8
34 -126 69 -281 7 -31 16 -62 21 -69 4 -7 9 -54 10 -104 3 -105 24 -199 121
-546 22 -80 43 -184 94 -465 36 -201 50 -269 58 -277 16 -16 1115 -51 1457
-46 l240 3 3 35 c1 19 14 132 28 250 26 228 38 297 85 505 35 155 67 309 81
385 26 139 110 556 115 563 2 4 13 65 24 135 10 70 28 159 38 197 11 39 20 85
20 102 1 18 7 50 15 70 17 49 66 232 68 258 3 42 -2 76 -11 71 -9 -6 -55 -198
-66 -276 -3 -25 -10 -54 -15 -65 -12 -25 -52 -181 -56 -215 -1 -14 -16 -67
-33 -118 -16 -51 -44 -152 -62 -225 -17 -73 -56 -231 -86 -352 -31 -121 -70
-294 -89 -384 -18 -90 -35 -170 -38 -178 -9 -22 -28 -3 -22 21 6 23 28 639 30
841 1 61 4 115 8 120 3 6 9 38 13 71 l7 62 -47 60 c-25 32 -57 64 -71 70 -16
8 -24 20 -24 37 0 14 -7 41 -15 61 -13 32 -13 36 6 55 15 15 24 17 39 9 29
-15 40 -43 40 -98 0 -40 5 -54 27 -76 14 -15 31 -25 37 -23 6 2 14 47 19 103
4 54 9 117 10 139 14 172 11 240 -12 302 -17 45 -29 63 -45 67 -30 7 -106 90
-106 115 0 11 4 31 10 45 10 29 46 35 94 16 23 -8 26 -15 26 -60 0 -41 6 -58
28 -86 45 -57 62 -43 62 52 0 30 -9 80 -20 111 -25 71 -25 69 5 95 16 14 23
28 19 40 -3 10 1 30 10 45 8 16 22 95 32 183 9 85 20 189 25 230 4 41 13 134
18 205 10 119 26 253 66 575 8 63 22 192 30 285 8 94 22 234 30 313 8 79 13
148 9 153 -3 5 8 17 25 27 54 30 83 147 85 340 1 147 -4 138 64 117 37 -12 26
12 -22 47 -46 34 -70 65 -41 54 8 -3 36 -8 62 -11 81 -10 82 -6 143 470 17
132 40 294 50 360 23 140 57 397 100 750 17 138 35 282 41 320 5 39 18 133 29
210 11 77 24 190 29 250 6 61 17 166 26 235 8 69 31 298 50 510 19 212 39 432
45 490 12 124 14 255 5 291 -10 41 55 191 226 519 35 69 99 197 141 285 79
165 94 216 118 415 4 36 13 85 20 109 10 40 10 46 -5 57 -22 17 -44 7 -51 -22
-3 -13 -9 -24 -14 -24 -4 0 -12 -10 -18 -22 -21 -44 -13 13 8 61 22 49 26 96
8 107 -7 5 -24 -7 -43 -29 -18 -20 -38 -37 -46 -37 -8 0 -29 -29 -47 -65 -19
-36 -38 -65 -43 -65 -5 0 -9 37 -9 82 0 92 -10 94 -38 8 -17 -52 -42 -79 -42
-45 0 10 14 69 30 132 49 185 37 207 -23 43 -19 -52 -40 -112 -47 -132 -17
-55 -35 -61 -27 -10 4 23 10 60 13 82 9 58 -12 51 -41 -12 -13 -29 -38 -102
-55 -163 -18 -60 -41 -143 -53 -184 -33 -114 -31 -68 3 96 18 81 38 177 46
213 7 36 13 85 13 110 l0 45 -20 -50 c-11 -27 -34 -97 -51 -155 -41 -145 -53
-153 -64 -41 -4 33 -11 58 -15 55 -5 -3 -14 6 -21 20 -6 14 -15 26 -19 26 -5
0 -20 -22 -34 -50 -14 -27 -31 -49 -37 -47 -6 1 -25 -38 -43 -90 -17 -50 -34
-95 -38 -99 -4 -4 -4 46 -1 112 l7 119 -21 -19 c-12 -10 -28 -42 -37 -71 -8
-29 -22 -55 -30 -59 -9 -3 -20 -16 -25 -28 -11 -26 -10 3 10 172 14 130 0 191
-30 120 -7 -16 -16 -30 -20 -30 -10 0 -20 52 -20 101 0 50 -17 51 -25 2 -4
-21 -13 -67 -21 -103 -9 -36 -24 -153 -34 -260 l-18 -195 2 165 c1 91 8 196
15 234 9 46 10 71 3 78 -7 7 -16 -7 -27 -45 -9 -30 -22 -60 -29 -66 -7 -6 -19
-29 -26 -51 -7 -22 -17 -40 -22 -40 -12 0 -28 46 -28 79 0 33 -24 60 -33 38
-3 -8 -8 -39 -12 -71 -14 -108 -24 -66 -22 86 2 130 -1 157 -15 177 l-17 24
-5 -24 c-3 -13 -8 -41 -11 -62 -4 -27 -13 -40 -29 -47 -13 -5 -27 -15 -30 -22
-4 -9 -8 -9 -11 -2 -3 6 -12 20 -20 30 -13 17 -14 14 -15 -38 0 -31 -4 -60
-10 -63 -6 -4 -10 15 -10 50 0 33 -6 65 -15 79 -8 12 -22 59 -31 103 l-16 81
-47 13 c-57 16 -109 55 -116 89 -3 14 1 45 10 69 19 56 19 61 -4 32 -28 -37
-42 -19 -35 44 4 32 3 60 -3 67 -6 7 -13 57 -16 111 -4 74 -9 102 -21 110 -10
8 -18 32 -20 65 -2 30 -9 59 -15 65 -6 6 -11 34 -11 62 0 38 -6 58 -20 75 -12
14 -20 37 -20 61 0 26 -6 42 -19 51 -11 8 -23 26 -26 41 -4 14 -13 31 -21 38
-8 6 -19 32 -25 56 -10 36 -15 43 -30 38 -22 -7 -39 27 -39 80 0 26 -9 44 -37
74 -62 66 -72 79 -88 118 -24 58 -63 103 -88 103 -18 0 -29 13 -50 60 -28 60
-49 75 -62 43 -6 -17 -7 -17 -17 1 -6 11 -16 40 -23 65 -9 37 -16 47 -36 49
-13 2 -29 8 -35 13 -6 5 -18 7 -27 3 -11 -4 -18 4 -26 29 -13 38 -65 91 -99
102 -12 3 -34 24 -47 46 -32 49 -99 96 -118 81 -15 -13 -27 -6 -50 31 -20 32
-47 35 -54 7 -7 -26 -23 -26 -23 0 0 29 -26 76 -45 84 -29 11 -36 7 -53 -33
l-18 -39 -28 49 c-26 47 -29 49 -72 49 -32 0 -46 -5 -51 -16 -5 -14 -11 -12
-32 14 -33 39 -77 47 -120 20z m103 -64 c9 -25 7 -72 -4 -79 -8 -5 -50 72 -50
91 0 12 49 2 54 -12z m-114 -98 c0 -6 -5 -18 -10 -26 -20 -30 -42 28 -30 80 2
9 40 -42 40 -54z m200 -23 c0 -35 -3 -44 -11 -36 -7 7 -9 25 -5 47 9 50 16 45
16 -11z m-580 -300 c-7 -54 -19 -82 -21 -47 -2 43 3 119 9 128 11 19 19 -31
12 -81z m740 -1113 c0 -53 -4 -90 -10 -90 -5 0 -10 20 -10 44 0 48 11 136 16
136 2 0 4 -40 4 -90z m-85 -394 c6 -71 4 -87 -6 -84 -20 7 -30 65 -23 137 8
82 20 61 29 -53z m882 -108 c-3 -8 -6 -5 -6 6 -1 11 2 17 5 13 3 -3 4 -12 1
-19z m2003 -488 c-6 -23 -14 -40 -16 -37 -3 3 0 24 7 46 16 54 24 46 9 -9z
m-813 -152 c-3 -7 -5 -2 -5 12 0 14 2 19 5 13 2 -7 2 -19 0 -25z m-160 -625
c-3 -10 -5 -4 -5 12 0 17 2 24 5 18 2 -7 2 -21 0 -30z m237 -85 c-6 -62 -33
-187 -45 -208 -15 -27 -10 42 10 136 28 132 44 164 35 72z m-247 -155 c-3 -10
-5 -2 -5 17 0 19 2 27 5 18 2 -10 2 -26 0 -35z m-1012 -6 c25 -21 27 -30 35
-147 11 -153 11 -455 0 -610 -15 -206 -45 -916 -60 -1450 -6 -195 -22 -481
-35 -635 -13 -154 -27 -329 -30 -390 -11 -214 -41 -380 -85 -483 -24 -55 -29
-59 -61 -41 -17 9 -28 5 -60 -17 -51 -35 -64 -23 -38 36 49 109 90 387 109
745 6 116 15 278 21 360 36 564 58 1181 52 1475 -4 166 -1 276 12 420 10 107
23 321 30 475 6 154 13 281 13 283 1 1 17 2 36 2 22 0 45 -9 61 -23z m1025
-112 c14 -16 0 -132 -46 -385 -14 -74 -40 -229 -60 -345 -19 -115 -64 -385
-100 -600 -84 -501 -153 -940 -169 -1070 -4 -27 -22 -151 -41 -275 -20 -124
-44 -292 -55 -375 -51 -394 -92 -587 -138 -647 -9 -13 -23 -38 -30 -55 -12
-31 -16 -32 -50 -27 -22 3 -43 0 -54 -8 -15 -11 7 -13 137 -13 125 0 158 3
170 15 16 18 49 184 71 360 9 69 22 172 30 230 8 58 26 191 40 295 14 105 36
264 50 355 13 91 36 251 50 355 34 252 50 359 80 550 15 88 35 214 45 280 11
66 26 163 35 215 8 52 26 172 40 265 36 254 123 775 135 818 13 44 35 57 57
34 14 -14 13 -32 -11 -188 -38 -246 -42 -336 -21 -432 15 -69 17 -122 12 -470
-5 -403 -12 -497 -67 -897 -11 -80 -29 -228 -40 -330 -20 -184 -66 -512 -95
-665 -8 -44 -26 -163 -39 -265 -30 -216 -37 -257 -66 -365 -29 -106 -44 -129
-102 -156 -26 -12 -48 -26 -48 -31 0 -21 165 7 197 34 8 7 11 22 8 42 -8 46
37 378 95 691 44 238 80 465 89 566 6 59 17 153 25 210 16 111 45 351 71 589
19 173 54 365 100 550 19 74 48 194 66 267 49 200 57 204 60 23 2 -143 8 -200
20 -200 4 0 11 16 15 35 8 47 24 55 24 13 0 -31 -25 -291 -50 -523 -18 -168
-58 -423 -76 -487 -3 -10 -10 -17 -16 -15 -6 1 -13 -14 -15 -33 -3 -27 -1 -32
7 -20 14 19 7 -92 -15 -225 -8 -49 -24 -146 -34 -215 -11 -69 -42 -258 -70
-420 -27 -162 -57 -362 -66 -445 -18 -174 -36 -265 -69 -344 -13 -31 -27 -67
-31 -81 -4 -14 -17 -38 -30 -55 -12 -16 -25 -43 -29 -59 -7 -27 -9 -28 -44
-22 -90 15 -175 26 -179 23 -2 -3 28 -15 67 -27 87 -28 100 -40 100 -91 0 -79
-62 -425 -80 -443 -14 -14 -139 14 -150 34 -10 19 -3 78 25 195 9 39 17 114
18 167 2 94 1 97 -27 127 -16 17 -26 34 -23 38 18 17 -111 43 -220 43 l-112 0
9 -29 c8 -29 -21 -234 -38 -268 -5 -10 -13 -36 -16 -58 -4 -22 -25 -69 -47
-104 -22 -35 -37 -66 -35 -69 9 -9 97 -21 156 -21 72 -1 96 15 103 71 17 144
60 405 68 421 10 17 12 17 32 3 12 -9 36 -23 52 -32 60 -33 65 -42 65 -119 0
-100 -27 -347 -41 -379 -14 -30 -37 -40 -55 -25 -8 6 -26 8 -46 3 -18 -4 -74
-7 -125 -8 -56 -1 -97 -6 -104 -13 -6 -6 -16 -56 -20 -110 -8 -88 -23 -206
-50 -403 -4 -36 -18 -144 -29 -240 -11 -96 -41 -337 -65 -535 -24 -198 -47
-398 -51 -445 -9 -118 -21 -169 -50 -207 -13 -17 -24 -34 -24 -37 0 -3 40 -6
89 -6 66 0 92 4 101 15 7 8 16 68 21 137 5 68 13 152 19 188 6 36 14 103 19
150 6 47 26 202 46 345 38 274 92 706 121 962 9 83 20 156 24 162 7 12 127 18
137 7 7 -7 -11 -174 -37 -346 -34 -217 -91 -677 -111 -890 -42 -453 -60 -617
-71 -658 -12 -49 -49 -84 -105 -102 -21 -7 -43 -17 -50 -22 -20 -16 -3 -38 31
-38 17 0 49 -9 71 -20 22 -11 47 -17 57 -14 20 6 26 -20 8 -31 -6 -4 -19 -24
-30 -45 -32 -64 -132 -117 -145 -77 -2 6 -7 47 -10 89 -6 72 -9 80 -37 99 -25
18 -34 20 -54 10 -24 -11 -62 -81 -77 -141 -4 -14 -20 -33 -38 -43 -17 -9 -29
-22 -27 -29 6 -16 68 -36 165 -54 108 -18 207 -51 262 -86 25 -15 51 -28 58
-28 22 0 43 -45 49 -108 7 -65 2 -72 -36 -52 -33 18 -90 101 -90 131 0 43 -37
40 -55 -5 -8 -18 -22 -37 -31 -40 -13 -5 -15 -9 -6 -18 7 -7 12 -22 12 -33 0
-28 -54 -47 -88 -32 -29 13 -37 44 -36 144 1 95 -6 102 -71 81 -35 -12 -40
-18 -51 -62 -7 -27 -22 -59 -34 -70 -11 -12 -26 -29 -33 -39 -7 -10 -30 -20
-52 -23 -69 -9 -85 -14 -85 -25 0 -7 24 -8 74 -4 52 5 76 4 81 -5 4 -6 1 -90
-6 -186 -14 -197 -3 -177 -108 -189 -77 -9 -119 -28 -127 -59 -7 -31 -12 -31
-43 -9 -13 9 -38 19 -55 22 -37 8 -47 42 -20 72 16 18 16 19 -9 19 -28 0 -36
13 -15 26 6 4 14 2 16 -4 6 -19 18 -14 30 13 10 21 9 26 -7 35 -12 6 -17 17
-14 28 2 10 -3 24 -11 31 -22 19 -20 36 9 79 14 20 25 41 25 46 0 20 34 46 61
46 15 0 29 5 31 12 2 6 -7 40 -21 75 l-25 65 -18 -41 c-9 -23 -22 -41 -27 -41
-5 0 -23 -12 -40 -26 -17 -14 -38 -24 -45 -21 -21 8 -15 86 7 99 10 5 17 21
17 39 0 22 6 32 25 39 29 11 32 31 9 66 -20 30 -17 34 35 41 50 7 71 -8 71
-51 1 -31 1 -31 18 -10 9 11 24 30 32 42 9 13 43 32 82 45 l67 23 -60 13 c-33
6 -75 9 -94 5 -30 -5 -38 -2 -66 27 -49 53 -62 92 -45 133 18 42 46 58 95 55
27 -2 46 3 65 19 16 12 50 25 77 28 54 7 62 13 49 34 -8 12 -14 12 -45 -3 -50
-24 -62 -22 -86 16 -18 29 -19 44 -15 162 12 359 36 588 111 1050 14 88 30
189 35 225 5 36 15 103 24 150 31 175 48 339 47 458 -1 68 -3 127 -6 132 -5 8
6 158 22 312 7 68 -7 80 -62 54 -37 -18 -55 -15 -55 9 0 21 33 35 82 35 64 0
87 9 94 37 5 17 0 31 -15 47 -15 15 -21 35 -21 65 0 37 -3 43 -28 52 -17 6
-36 26 -51 53 -19 36 -22 55 -18 103 9 108 28 238 37 248 5 6 14 40 20 75 5
36 15 83 21 105 22 84 48 221 49 252 0 53 23 173 33 173 5 0 6 7 3 16 -6 15
-4 15 10 3 14 -11 15 -26 9 -99 -5 -65 -4 -82 5 -74 17 16 119 493 190 884 18
96 36 191 41 210 4 19 20 98 34 175 26 140 38 189 95 385 17 58 44 173 61 255
16 83 45 213 64 290 18 77 41 183 50 235 29 173 64 329 80 359 17 34 29 38
106 40 39 1 60 -4 69 -14z m-904 -386 c7 -150 -7 -615 -37 -1214 -11 -220 -26
-569 -34 -775 -33 -865 -57 -1271 -81 -1383 -16 -77 -10 -137 17 -182 14 -25
16 -38 9 -70 -16 -66 -22 -453 -9 -490 9 -25 9 -54 1 -121 -6 -49 -19 -156
-28 -239 -8 -82 -31 -264 -50 -403 -20 -139 -42 -324 -49 -410 -8 -86 -15
-159 -15 -162 -1 -3 -5 4 -10 15 -15 35 -10 244 10 435 59 562 69 694 75 950
l4 175 -24 -135 c-13 -74 -31 -207 -40 -295 -8 -88 -20 -198 -25 -245 -22
-183 -50 -524 -60 -710 -10 -200 -26 -410 -36 -490 -11 -78 -20 -18 -22 144
-2 168 -5 208 -33 413 -25 190 -25 203 17 340 68 225 113 486 154 898 6 61 13
128 15 149 2 23 -3 52 -11 68 -13 26 -13 36 1 89 22 88 20 156 -5 169 -11 6
-20 19 -20 29 0 10 -9 29 -19 43 -11 13 -23 37 -26 51 -6 24 -4 27 17 27 19 0
29 10 47 48 12 26 34 68 47 94 31 57 39 117 53 383 6 110 16 252 21 315 5 63
17 284 25 490 9 206 20 447 25 535 5 88 19 381 30 650 11 270 25 558 30 640 6
83 14 187 17 233 3 45 7 81 9 79 2 -2 7 -64 10 -138z m-4538 -562 c2 -100 2
-193 0 -207 -5 -30 -27 171 -32 294 -5 96 0 124 17 107 7 -7 13 -82 15 -194z
m147 166 c4 -10 11 -45 15 -78 4 -33 15 -109 23 -170 9 -60 21 -175 27 -255
12 -151 36 -406 46 -475 3 -22 9 -116 14 -210 13 -234 46 -678 70 -930 35
-373 60 -734 71 -1015 5 -151 14 -300 19 -330 9 -58 4 -110 -11 -110 -5 0 -9
4 -9 8 0 5 -8 19 -19 31 -21 24 -23 47 -46 455 -8 142 -19 308 -25 370 -6 61
-15 161 -21 221 -5 61 -14 139 -19 175 -6 36 -14 121 -19 190 -5 69 -17 206
-25 305 -9 99 -27 311 -41 470 -36 421 -54 617 -65 730 -10 91 -30 491 -30
593 0 35 3 42 19 42 10 0 22 -8 26 -17z m-6921 -549 c53 -53 96 -101 96 -107
0 -13 -42 24 -132 117 -60 61 -78 86 -64 86 2 0 47 -43 100 -96z m6860 87 c8
-12 33 -230 45 -391 6 -74 17 -209 25 -300 27 -308 38 -445 46 -585 14 -231
29 -411 50 -580 27 -224 39 -436 50 -835 5 -199 13 -357 19 -373 16 -40 14
-87 -4 -93 -8 -3 -27 -2 -42 3 -25 9 -28 15 -29 59 -24 784 -24 793 -73 1359
-24 275 -39 464 -46 580 -16 286 -48 720 -61 845 -25 233 -26 263 -15 293 11
27 25 35 35 18z m-4719 -151 c4 -6 24 -68 45 -138 21 -70 70 -221 108 -337 39
-115 85 -259 102 -320 17 -60 47 -164 67 -230 19 -66 47 -163 63 -215 15 -52
61 -203 103 -335 72 -231 115 -354 248 -720 81 -223 178 -501 191 -545 6 -19
23 -62 39 -95 44 -94 100 -256 94 -274 -2 -9 -21 -29 -40 -44 -46 -36 -72 -29
-81 21 -4 20 -27 89 -51 152 -59 155 -134 341 -144 360 -11 21 -111 269 -171
425 -214 556 -236 617 -301 825 -65 209 -102 356 -132 515 -38 203 -90 454
-120 580 -28 120 -65 323 -65 361 0 17 6 24 19 24 11 0 23 -5 26 -10z m9511
-82 c-3 -24 -9 -63 -12 -88 -3 -25 -8 -52 -11 -60 -5 -14 -13 -57 -32 -177 -5
-31 -14 -59 -18 -62 -5 -3 -10 -26 -12 -51 -1 -24 -7 -50 -13 -57 -5 -7 -18
-61 -29 -120 -10 -60 -23 -121 -27 -138 -8 -27 -10 -23 -17 38 -5 45 -4 72 4
80 6 8 9 16 6 19 -3 2 4 47 15 99 11 52 20 109 20 127 0 38 30 154 42 163 5 3
12 34 18 70 10 72 51 198 64 199 4 0 5 -19 2 -42z m-10172 -243 c-6 -31 1 -47
50 -128 30 -51 74 -135 96 -186 22 -52 47 -103 55 -115 8 -11 15 -32 15 -47 0
-24 -4 -27 -52 -33 -29 -3 -73 -6 -98 -6 l-45 0 100 -98 c129 -124 251 -305
441 -653 37 -68 76 -140 87 -159 11 -19 43 -80 72 -135 29 -55 85 -160 125
-234 40 -74 104 -198 142 -275 68 -137 91 -189 165 -365 113 -273 208 -402
336 -456 34 -14 37 -14 37 1 0 10 -17 40 -39 68 -47 62 -57 82 -164 322 -81
181 -106 241 -160 384 -13 36 -44 112 -67 170 -92 229 -176 492 -244 760 -55
216 -66 267 -66 302 l1 33 14 -25 c16 -29 35 -85 101 -300 25 -85 79 -236 119
-335 39 -99 75 -193 79 -209 4 -17 27 -77 51 -135 23 -58 61 -155 83 -216 23
-60 68 -171 100 -245 147 -334 222 -522 222 -554 0 -7 8 -24 18 -37 20 -27 42
-94 42 -130 0 -12 11 -39 24 -58 26 -39 45 -111 28 -111 -5 0 -33 36 -61 80
-58 88 -68 99 -77 75 -4 -9 -28 -27 -54 -40 -49 -25 -93 -70 -87 -89 7 -20
143 -69 216 -77 90 -10 119 -33 162 -126 16 -35 31 -63 33 -63 2 0 1 20 -2 45
-3 30 -1 45 7 45 12 0 71 -77 71 -94 0 -6 15 -42 34 -81 55 -112 106 -231 106
-249 0 -30 -31 -16 -47 21 -8 21 -36 74 -61 118 -25 44 -58 105 -73 135 -15
30 -28 49 -28 41 -2 -36 43 -165 88 -251 27 -53 52 -115 56 -139 8 -50 1 -58
-84 -97 -30 -14 -67 -36 -82 -48 -15 -13 -99 -51 -188 -86 -88 -35 -161 -67
-161 -70 0 -4 12 -12 27 -19 34 -16 54 -43 104 -143 11 -20 23 -39 28 -43 5
-3 15 -22 22 -43 6 -20 26 -59 44 -87 18 -27 38 -68 45 -90 7 -22 34 -85 60
-140 48 -99 62 -137 94 -247 16 -53 44 -122 66 -158 5 -8 21 -55 36 -105 15
-49 30 -97 34 -105 4 -8 12 -26 18 -40 6 -14 19 -45 30 -70 11 -25 32 -76 47
-115 15 -38 40 -97 55 -130 16 -33 40 -100 55 -150 15 -49 40 -117 55 -150 15
-33 31 -77 34 -97 4 -21 12 -38 18 -38 6 0 9 -3 5 -6 -3 -4 3 -25 15 -47 18
-36 45 -122 79 -252 12 -44 40 -107 52 -116 4 -3 10 -23 12 -45 9 -78 27 -170
41 -214 8 -25 14 -57 14 -72 0 -15 11 -52 25 -82 14 -30 25 -66 25 -79 0 -14
7 -41 15 -60 22 -54 19 -64 -27 -82 -50 -19 -81 -55 -82 -96 -1 -36 -33 -39
-57 -6 -45 62 -305 810 -678 1952 -76 234 -131 358 -204 467 -61 91 -74 131
-52 164 16 24 16 29 0 77 -9 29 -25 61 -35 72 -28 31 -40 61 -40 97 0 33 -41
170 -65 218 -7 14 -15 39 -18 55 -5 27 -79 151 -128 215 -27 34 -59 107 -59
132 0 12 -3 19 -6 15 -11 -10 -63 99 -62 130 1 22 -11 42 -46 78 -25 27 -69
92 -96 144 -28 53 -82 155 -120 226 -38 72 -106 201 -149 287 -112 219 -419
780 -504 918 -39 63 -95 156 -125 205 -31 50 -62 98 -71 108 -27 32 -125 201
-136 236 -7 22 -78 136 -97 156 -21 21 6 -43 82 -200 43 -88 84 -176 91 -195
8 -19 50 -107 93 -195 71 -143 110 -216 186 -350 61 -106 97 -173 109 -205 8
-19 20 -42 28 -51 7 -8 13 -19 13 -24 0 -5 8 -18 18 -29 10 -12 24 -34 31 -50
11 -26 11 -28 -4 -16 -23 19 -29 6 -12 -32 9 -18 18 -44 22 -58 4 -14 116
-245 250 -515 134 -269 252 -515 263 -545 11 -30 42 -100 68 -155 74 -158 115
-289 84 -270 -12 7 -159 306 -207 420 -14 33 -33 78 -43 100 -10 22 -30 69
-45 104 -14 35 -67 144 -116 242 -49 99 -105 212 -124 252 -93 198 -290 554
-250 452 4 -11 20 -51 35 -90 26 -66 52 -124 140 -310 21 -44 50 -107 63 -140
14 -33 49 -110 77 -170 64 -135 100 -219 151 -355 22 -58 51 -134 65 -169 37
-95 22 -85 -26 16 -23 48 -66 138 -95 198 -30 61 -74 155 -98 210 -25 55 -81
174 -124 265 -44 91 -87 181 -95 200 -9 19 -88 188 -176 375 -169 361 -241
522 -372 835 -88 207 -164 367 -223 464 -41 68 -39 75 28 102 28 12 49 30 60
51 l18 32 -41 60 c-46 66 -258 413 -347 566 -32 55 -68 116 -81 135 -45 71
-45 73 59 118 51 23 129 54 172 70 84 31 355 142 465 191 36 16 69 30 73 30 4
1 5 -15 1 -34z m-814 -190 c19 -19 28 -35 22 -35 -16 0 -62 45 -62 60 0 15 3
13 40 -25z m10817 -377 c-3 -8 -6 -5 -6 6 -1 11 2 17 5 13 3 -3 4 -12 1 -19z
m-17 -142 c0 -30 -25 -97 -33 -89 -9 8 -9 107 -1 116 12 12 34 -6 34 -27z
m-7450 -359 c0 -5 -4 -5 -10 -2 -5 3 -10 14 -10 23 0 15 2 15 10 2 5 -8 10
-19 10 -23z m-4082 -117 c10 -16 10 -20 -2 -20 -7 0 -16 9 -19 20 -3 11 -2 20
2 20 3 0 12 -9 19 -20z m7972 -560 c5 -162 12 -419 15 -570 9 -405 45 -855 75
-935 14 -37 2 -48 -37 -34 -35 12 -36 17 -68 264 -37 298 -44 459 -42 1025 2
458 5 564 17 604 l15 50 7 -55 c4 -30 12 -187 18 -349z m-7659 278 c8 -15 8
-18 0 -14 -6 4 -16 16 -22 28 -8 15 -8 18 0 14 6 -4 16 -16 22 -28z m10669
-503 c0 -8 -4 -15 -10 -15 -5 0 -10 7 -10 15 0 8 5 15 10 15 6 0 10 -7 10 -15z
m334 -125 c4 -5 5 -13 2 -19 -9 -14 -56 8 -56 26 0 15 35 10 54 -7z m-1271
-250 c9 0 17 -4 17 -10 0 -5 -6 -10 -12 -10 -7 0 -30 -5 -51 -11 -35 -9 -38
-13 -33 -35 7 -26 8 -621 2 -684 -2 -19 -7 -98 -11 -175 -4 -77 -9 -160 -11
-185 -2 -25 -6 -173 -8 -330 -2 -157 -5 -289 -6 -295 -5 -21 1 -35 14 -35 8 0
17 -13 21 -29 7 -32 -1 -234 -14 -346 -4 -38 -9 -146 -10 -238 -1 -93 -5 -175
-8 -183 -9 -24 -22 -5 -28 44 -19 137 -60 275 -94 318 -15 19 -20 50 -26 166
-18 368 -26 459 -36 433 -4 -11 -8 -40 -8 -64 -1 -47 -27 -215 -41 -266 -13
-49 -11 204 5 600 8 198 15 570 15 827 0 434 -1 468 -17 477 -10 5 -14 13 -10
18 10 9 242 22 297 17 19 -2 43 -4 53 -4z m-1023 -150 c0 -36 -10 -43 -32 -23
-21 19 -23 36 -7 65 11 21 12 21 25 3 8 -10 14 -31 14 -45z m-4391 -71 c37
-36 61 -76 100 -172 17 -42 14 -132 -5 -151 -18 -18 -50 -21 -59 -5 -4 6 -13
39 -20 75 -8 35 -30 104 -49 153 -35 87 -43 121 -29 134 11 12 18 8 62 -34z
m-2621 -172 c11 -17 50 -90 87 -162 37 -71 71 -134 75 -140 4 -5 34 -68 66
-140 32 -71 78 -162 101 -201 24 -39 43 -75 43 -80 0 -5 7 -22 16 -39 9 -16
37 -77 64 -135 26 -58 74 -159 105 -225 83 -174 165 -379 165 -412 -1 -27 -2
-27 -22 12 -12 22 -39 83 -60 135 -51 123 -206 465 -231 510 -11 19 -51 96
-90 170 -39 74 -78 147 -89 162 -10 14 -18 31 -18 37 0 17 -115 244 -177 351
-62 105 -97 173 -108 209 l-7 24 30 -22 c17 -12 39 -36 50 -54z m5249 41 c-3
-8 -6 -5 -6 6 -1 11 2 17 5 13 3 -3 4 -12 1 -19z m-85 -143 c15 -55 28 -107
28 -116 0 -25 -29 -32 -56 -14 -21 13 -24 24 -24 71 0 58 -9 84 -43 122 -18
20 -19 24 -7 33 8 5 28 8 44 7 28 -3 30 -7 58 -103z m4924 1 c11 -11 6 -82
-24 -331 -19 -157 -72 -636 -112 -1019 -22 -214 -44 -394 -47 -400 -4 -6 -9
-55 -13 -110 -3 -61 -9 -101 -16 -103 -7 -2 -24 6 -39 19 -25 22 -26 26 -16
68 27 115 64 749 43 736 -6 -3 -10 -20 -10 -36 1 -17 -2 -33 -5 -37 -22 -21
27 368 52 422 14 29 23 82 31 189 6 83 13 153 15 156 3 4 11 108 20 231 11
149 20 226 28 231 15 10 78 -1 93 -16z m-1260 -283 c-3 -109 -9 -236 -12 -283
-4 -52 0 -139 10 -225 28 -254 65 -850 52 -862 -6 -6 -15 93 -26 282 -5 94
-19 238 -30 320 -35 252 -36 591 -3 906 12 115 16 56 9 -138z m-7589 120 c8
-12 24 -23 35 -23 35 0 85 -61 93 -113 13 -85 -38 -105 -98 -38 -49 54 -69 95
-61 126 5 20 1 27 -21 37 -23 10 -25 14 -11 23 24 18 46 14 63 -12z m4035 -38
c-10 -21 -9 -37 3 -78 8 -28 15 -57 15 -65 0 -23 -26 3 -40 41 -7 18 -24 42
-39 54 l-26 23 33 29 c17 17 32 36 32 43 0 8 5 7 17 -4 14 -14 15 -22 5 -43z
m-3848 8 c55 -84 40 -211 -16 -145 -18 20 -38 97 -38 146 0 48 22 47 54 -1z
m3768 -114 c25 -50 36 -116 44 -273 l7 -138 28 -10 c29 -10 57 -67 44 -88 -9
-15 -41 -12 -55 5 -18 21 -35 13 -35 -16 0 -22 -4 -24 -62 -27 -39 -2 -63 1
-63 7 0 10 16 16 65 23 22 4 22 8 6 108 -6 36 -11 101 -11 145 0 44 -7 116
-15 160 -8 44 -15 95 -15 113 0 29 3 33 23 30 14 -2 28 -16 39 -39z m-3626
-111 c41 -19 78 -60 98 -109 71 -172 96 -245 96 -274 0 -28 6 -37 31 -50 44
-23 36 -52 -26 -85 -27 -15 -62 -30 -77 -34 -23 -5 -28 -3 -28 13 0 14 5 18
20 14 29 -8 84 81 68 110 l-11 21 -8 -22 c-11 -30 -24 -28 -50 9 -29 42 -47
25 -31 -29 7 -22 12 -48 11 -58 0 -18 -1 -18 -12 0 -7 10 -25 35 -41 55 -15
20 -38 56 -51 81 -13 25 -41 79 -64 120 -22 41 -41 83 -41 93 0 10 13 26 30
35 34 19 52 49 23 37 -65 -27 -71 -9 -16 47 42 43 42 43 79 26z m3741 -125 c7
-93 -5 -144 -18 -78 -4 22 -8 71 -8 110 -1 95 18 72 26 -32z m778 48 c3 -6 -4
-38 -16 -72 -19 -54 -21 -74 -15 -164 5 -70 4 -105 -3 -110 -6 -3 -13 0 -15 7
-2 7 -13 42 -24 78 -11 36 -23 78 -27 94 -6 27 -7 28 -19 10 -8 -10 -16 -28
-19 -39 -2 -11 -5 7 -5 40 -1 70 19 116 64 145 31 21 69 26 79 11z m105 -282
c0 -5 -4 -9 -10 -9 -5 0 -10 7 -10 16 0 8 5 12 10 9 6 -3 10 -10 10 -16z m275
11 c7 -11 -39 -25 -55 -15 -5 3 -8 11 -5 16 8 12 52 12 60 -1z m-495 -194 c0
-24 -19 -66 -30 -66 -11 0 -14 63 -3 73 12 12 33 7 33 -7z m-1469 -208 c0 -7
2 -77 4 -155 2 -78 6 -147 10 -153 9 -14 -6 -131 -16 -124 -5 3 -10 -14 -10
-38 -3 -104 -14 72 -13 212 1 232 3 270 14 270 6 0 10 -6 11 -12z m1019 -78
c0 -13 -7 -20 -19 -20 -14 0 -18 5 -14 20 3 11 12 20 19 20 8 0 14 -9 14 -20z
m-113 -47 c-3 -10 -5 -2 -5 17 0 19 2 27 5 18 2 -10 2 -26 0 -35z m104 -61 c6
-16 5 -21 -3 -16 -8 5 -9 -1 -3 -22 9 -36 15 -276 8 -326 -3 -21 -9 -38 -14
-38 -4 0 -11 17 -14 38 -3 20 -11 56 -17 79 -17 67 -30 257 -21 293 8 29 53
23 64 -8z m735 -207 c3 -8 1 -70 -5 -137 -7 -68 -16 -258 -21 -423 -26 -809
-33 -941 -54 -1080 -4 -26 -9 -139 -21 -480 -3 -96 -12 -182 -21 -196 -8 -13
-32 -11 -40 3 -5 7 -7 69 -6 138 15 1077 20 1267 47 1645 8 110 17 265 21 344
7 162 13 188 46 194 42 8 49 7 54 -8z m-5366 -26 c0 -5 -8 -12 -17 -16 -39
-13 -44 -24 -28 -50 19 -28 11 -63 -14 -63 -10 0 -28 11 -41 25 -13 14 -32 25
-42 25 -51 0 14 71 78 85 51 12 64 11 64 -6z m8224 -171 c-2 -143 -12 -188
-43 -188 -29 0 -32 11 -20 76 6 32 12 77 14 99 2 23 8 61 15 85 27 108 35 91
34 -72z m-4584 97 c0 -14 -4 -25 -10 -25 -5 0 -10 11 -10 25 0 14 5 25 10 25
6 0 10 -11 10 -25z m9 -87 c13 -61 13 -268 -1 -268 -5 0 -7 4 -4 9 9 13 -5 71
-15 65 -5 -3 -8 50 -7 120 1 69 5 126 8 126 4 0 12 -24 19 -52z m4425 -55 c-4
-27 -8 -64 -9 -83 -1 -19 -3 -57 -4 -85 l-4 -50 -7 45 c-9 50 -4 138 12 188
14 47 20 39 12 -15z m-7984 -93 c0 -24 -46 -60 -76 -60 -13 0 -28 -8 -34 -17
-9 -15 -10 -13 -5 11 8 38 34 76 59 85 29 11 56 2 56 -19z m7970 -214 c-3 -71
-3 -71 25 -84 34 -16 32 -38 -5 -51 -21 -7 -30 -17 -30 -31 0 -13 -5 -20 -12
-17 -14 4 -19 198 -6 230 14 33 30 6 28 -47z m-4395 24 c3 -5 1 -10 -4 -10 -6
0 -11 5 -11 10 0 6 2 10 4 10 3 0 8 -4 11 -10z m-3435 -124 c-32 -31 -70 -43
-70 -23 0 20 39 46 70 46 l25 1 -25 -24z m4846 -155 c-7 -118 -25 -236 -33
-213 -3 6 0 74 6 150 6 76 11 151 11 166 0 17 4 25 11 20 8 -4 9 -42 5 -123z
m-1401 39 c3 -5 1 -10 -4 -10 -6 0 -11 5 -11 10 0 6 2 10 4 10 3 0 8 -4 11
-10z m15 -39 c5 -11 8 -30 6 -43 -2 -13 0 -30 5 -39 8 -17 12 -128 6 -186 -2
-18 0 -33 3 -33 3 0 6 -8 7 -17 3 -63 17 -150 25 -160 5 -7 11 -108 13 -225 2
-117 8 -244 14 -283 6 -38 13 -124 15 -190 3 -66 10 -154 16 -195 5 -41 12
-110 14 -152 3 -43 7 -82 10 -86 3 -5 8 -92 12 -193 l6 -184 -26 -29 c-14 -16
-26 -25 -26 -20 0 5 -7 88 -15 184 -47 530 -81 1120 -79 1345 0 55 -2 87 -6
70 -3 -16 -10 61 -14 173 -5 112 -6 205 -3 208 2 3 1 21 -3 40 -9 37 3 46 20
15z m5289 -254 c6 -8 8 -16 5 -20 -10 -9 -34 4 -34 19 0 18 14 18 29 1z m-330
-26 c51 -27 70 -87 53 -171 -7 -31 -12 -75 -12 -97 0 -51 -20 -71 -53 -54 -74
40 -78 43 -73 59 3 10 10 73 16 140 9 116 14 142 26 142 3 0 22 -9 43 -19z
m160 -36 c9 -20 11 -33 4 -44 -15 -23 -55 -26 -70 -5 -17 23 -17 91 0 97 18 7
50 -16 66 -48z m96 -272 c4 -16 8 -36 10 -45 2 -10 -1 -20 -6 -23 -11 -7 -52
72 -44 85 12 19 35 9 40 -17z m-267 -55 c19 -19 15 -48 -8 -48 -23 0 -35 22
-26 45 7 18 18 19 34 3z m-270 -17 c14 -8 6 -105 -43 -551 -8 -74 -20 -186
-25 -248 -5 -63 -13 -118 -16 -123 -12 -21 -32 14 -44 76 -7 36 -16 68 -21 70
-4 3 -13 -14 -19 -37 -6 -24 -20 -72 -30 -108 -11 -36 -26 -108 -35 -160 -8
-52 -18 -111 -22 -130 -3 -19 -5 -43 -4 -52 3 -21 -18 -62 -27 -53 -13 13 0
374 19 545 11 96 24 216 29 265 38 374 55 476 80 497 24 19 133 25 158 9z
m268 -77 c-3 -9 -7 -46 -7 -82 l-2 -67 -8 70 c-10 73 -7 95 12 95 6 0 8 -7 5
-16z m-97 -972 c-4 -2 -3 -17 2 -35 5 -18 7 -45 4 -62 -3 -16 -7 -64 -10 -105
-15 -296 -40 -470 -66 -455 -19 13 -7 289 23 515 12 87 14 98 17 103 2 1 4 13
7 27 2 14 7 36 11 50 6 25 6 25 12 -5 4 -16 4 -31 0 -33z m-344 -264 c-7 -174
-16 -225 -43 -242 -12 -7 -22 256 -12 296 5 18 14 54 21 81 7 30 17 47 27 47
13 0 14 -24 7 -182z m-977 -8 c0 -9 -3 -7 -8 5 -5 11 -8 29 -8 40 0 16 2 15 8
-5 4 -14 8 -32 8 -40z"/>
<path d="M15905 16692 c-4 -24 -5 -46 -2 -49 8 -7 20 63 14 79 -2 7 -7 -6 -12
-30z"/>
<path d="M15836 16213 c-6 -42 -7 -114 0 -98 2 6 8 38 12 73 9 66 -1 88 -12
25z"/>
<path d="M14385 14735 c-11 -16 -23 -33 -28 -36 -4 -3 -1 -11 7 -18 12 -10 18
-8 31 13 9 14 15 35 13 48 -3 22 -4 22 -23 -7z"/>
<path d="M5736 13360 c3 -14 10 -32 15 -40 7 -12 8 -11 9 6 0 11 -7 29 -16 40
-14 18 -15 18 -8 -6z"/>
<path d="M6480 13285 c0 -20 -7 -26 -39 -35 -29 -7 -42 -18 -51 -40 -7 -17
-18 -30 -24 -30 -6 0 10 -19 37 -41 59 -51 102 -113 133 -192 29 -75 56 -104
106 -118 22 -5 46 -13 54 -16 23 -8 17 38 -11 91 -33 63 -97 215 -124 296 -30
89 -41 110 -63 110 -12 0 -18 -7 -18 -25z"/>
<path d="M11939 20093 c-3 -77 -1 -150 6 -214 5 -47 3 -86 -9 -137 -9 -39 -16
-85 -16 -102 0 -22 -9 -39 -32 -60 -17 -16 -34 -27 -37 -24 -8 7 -18 140 -27
337 -4 87 -10 160 -15 162 -15 10 -22 -91 -16 -254 5 -176 -7 -202 -22 -44 -8
89 -24 138 -42 128 -5 -4 -9 -15 -9 -26 0 -25 -16 -24 -31 2 -20 39 -29 1 -29
-129 0 -69 -4 -121 -9 -118 -5 3 -16 38 -26 78 -25 107 -25 108 -40 108 -8 0
-18 8 -24 17 -5 10 -13 14 -17 10 -4 -4 2 -25 14 -46 23 -40 31 -142 13 -169
-8 -13 -34 69 -43 133 -2 14 -11 20 -28 20 -21 0 -27 7 -34 38 -5 20 -13 37
-18 37 -4 0 -11 0 -15 0 -11 1 -42 62 -43 85 -1 14 -6 9 -14 -15 -9 -23 -19
-35 -32 -35 -29 0 -34 -15 -28 -76 4 -40 3 -59 -6 -64 -16 -10 -30 12 -30 50
0 17 -4 36 -9 44 -17 27 -23 -29 -16 -147 8 -126 2 -141 -18 -43 -7 34 -17 63
-22 64 -6 1 -12 -18 -15 -43 l-5 -45 -12 57 c-15 70 -39 128 -52 128 -11 0
-12 -8 -15 -117 0 -34 -4 -65 -9 -69 -11 -11 -32 22 -46 74 -16 62 -29 43 -33
-48 l-3 -75 -17 35 c-9 19 -21 64 -27 100 -24 139 -26 141 -51 63 -15 -49 -21
-52 -43 -20 -15 21 -16 18 -17 -58 -1 -87 -14 -169 -22 -145 -3 8 -13 55 -22
105 -18 94 -42 154 -32 80 18 -134 18 -180 2 -194 -18 -15 -21 -57 -6 -95 6
-17 6 -26 0 -26 -11 0 -35 53 -57 125 -8 28 -22 62 -30 76 l-16 27 -23 -45
c-13 -24 -24 -57 -24 -74 0 -37 -8 -37 -54 6 -63 57 -65 54 -37 -79 22 -103
21 -121 -5 -121 -17 0 -19 -9 -22 -74 -3 -77 -2 -81 96 -396 58 -185 101 -306
118 -332 12 -19 17 -21 33 -11 20 12 35 4 60 -37 10 -17 11 -12 7 30 -19 191
-19 190 -1 171 9 -9 25 -14 34 -11 12 4 28 -12 59 -59 23 -35 47 -75 52 -87 8
-18 9 -4 5 56 -3 44 -7 92 -9 108 -11 83 37 -33 69 -168 7 -27 8 -28 15 -10 5
11 9 55 9 98 1 42 5 77 10 77 19 0 75 -118 97 -205 13 -49 32 -119 41 -155
l18 -65 3 45 c2 24 -1 63 -7 86 -13 50 -13 220 -1 249 7 18 10 15 24 -20 9
-22 25 -60 36 -85 10 -25 22 -55 25 -67 13 -48 25 -20 25 57 0 80 12 103 29
56 5 -12 19 -81 31 -151 38 -227 49 -220 57 44 7 228 21 274 43 145 12 -69 45
-179 64 -213 l13 -24 7 27 c4 15 7 102 7 194 0 92 3 187 6 212 l7 45 7 -40 c4
-22 8 -76 9 -120 1 -82 13 -134 23 -105 3 8 8 29 12 45 7 28 8 29 15 9 11 -28
51 -297 59 -394 l6 -75 12 125 c7 69 15 162 19 208 7 94 24 111 25 25 0 -32 4
-76 8 -98 l7 -40 7 52 c9 60 23 76 33 36 7 -25 8 -25 15 -8 4 11 8 47 9 80 0
33 7 71 15 85 8 14 15 23 16 20 0 -3 6 -48 13 -100 8 -64 16 -94 24 -92 8 1
12 -15 12 -49 0 -28 5 -60 12 -72 l12 -22 7 25 c4 14 7 50 8 81 1 32 7 63 16
75 13 18 14 15 15 -31 0 -27 4 -56 9 -64 12 -19 25 116 16 177 l-7 49 36 -11
c43 -13 46 -23 46 -153 0 -60 4 -103 10 -103 12 0 30 34 30 58 0 10 7 42 16
72 21 72 34 50 34 -62 0 -48 4 -89 9 -92 5 -3 20 20 34 52 37 86 38 88 103
377 8 33 18 139 24 236 l10 175 -44 145 c-24 80 -48 154 -54 166 -6 11 -29 90
-51 176 -44 175 -48 185 -91 220 -17 14 -30 30 -29 34 4 21 -2 53 -8 52 -5 -1
-18 2 -30 6 -18 6 -23 15 -23 40 0 18 -7 38 -15 45 -12 10 -16 8 -25 -15 -5
-14 -10 -35 -10 -45 0 -10 -4 -21 -9 -25 -10 -6 -26 37 -37 98 -9 51 -24 57
-25 10z m201 -213 c0 -5 -5 -10 -11 -10 -5 0 -7 5 -4 10 3 6 8 10 11 10 2 0 4
-4 4 -10z"/>
<path d="M8456 20039 c-8 -42 -7 -115 3 -164 7 -31 9 -12 10 78 0 64 -1 117
-3 117 -2 0 -6 -14 -10 -31z"/>
<path d="M8377 19915 c-14 -121 -16 -185 -7 -185 10 0 23 147 18 210 -3 42 -4
40 -11 -25z"/>
<path d="M15201 19894 c0 -11 3 -14 6 -6 3 7 2 16 -1 19 -3 4 -6 -2 -5 -13z"/>
<path d="M9815 19748 c3 -46 10 -104 15 -130 10 -50 -2 -104 -20 -93 -11 7
-41 69 -46 98 -2 9 1 17 6 17 14 0 13 73 -1 87 -6 6 -18 9 -26 6 -19 -7 -33
14 -33 49 0 15 -4 30 -10 33 -21 13 2 -160 30 -217 16 -33 20 -62 20 -137 0
-121 -11 -234 -21 -224 -4 4 -15 64 -24 133 -9 69 -21 139 -26 157 -5 17 -12
54 -16 82 -3 28 -9 51 -13 51 -7 0 -26 -66 -40 -145 -12 -61 -31 -100 -41 -83
-8 12 -39 -52 -39 -80 0 -26 -32 -132 -40 -132 -9 0 -16 25 -26 95 -7 51 -31
111 -41 102 -3 -3 0 -45 7 -94 10 -74 9 -93 -3 -122 -8 -20 -17 -29 -21 -22
-5 8 -14 6 -30 -4 -23 -15 -23 -15 -30 35 -8 59 -15 80 -27 80 -5 0 -9 -53
-10 -117 0 -72 -3 -110 -8 -98 -7 17 -31 200 -31 235 0 6 -6 10 -14 10 -12 0
-13 -20 -9 -115 6 -118 -3 -147 -25 -82 -9 27 -11 14 -9 -75 1 -59 0 -104 -4
-100 -4 4 -14 42 -23 85 -10 42 -22 77 -27 77 -5 0 -9 -25 -9 -55 0 -30 -4
-55 -9 -55 -4 0 -16 21 -26 47 -26 67 -34 36 -27 -99 6 -121 -9 -147 -28 -50
-26 131 -35 98 -46 -155 -9 -232 -8 -301 5 -333 9 -22 10 -19 11 25 1 28 5 59
9 70 9 21 6 27 46 -107 19 -62 29 -71 39 -36 8 34 20 14 55 -92 24 -73 31 -84
26 -50 -3 25 -8 77 -11 115 l-5 70 27 -43 c28 -45 44 -43 44 6 0 35 18 17 26
-26 4 -20 13 -50 20 -67 l12 -30 6 25 c3 14 7 34 9 45 6 36 38 -53 49 -137 15
-114 32 -100 24 20 -15 234 -17 337 -6 320 6 -10 17 -55 25 -100 8 -45 19 -96
24 -112 5 -17 15 -71 21 -121 19 -151 28 -129 29 70 1 103 3 190 5 192 2 3 12
-22 21 -53 9 -32 28 -71 41 -87 14 -17 24 -42 24 -60 0 -18 5 -39 10 -47 8
-12 10 -11 10 7 0 27 10 53 20 53 4 0 11 -20 14 -45 9 -55 23 -59 28 -7 l4 37
19 -40 19 -40 5 35 c4 25 14 38 34 48 26 13 27 15 27 97 0 76 2 84 19 82 22
-1 31 -63 31 -219 0 -89 24 -295 35 -307 3 -2 5 70 5 160 0 173 6 203 35 179
10 -8 22 -26 27 -40 10 -24 11 -23 29 30 10 30 19 69 19 85 1 17 5 39 9 50 5
12 11 -23 15 -93 4 -62 12 -126 18 -143 6 -17 8 -52 4 -81 -6 -44 -5 -50 7
-39 8 6 27 65 43 131 15 66 31 117 34 112 22 -25 33 -95 23 -148 -9 -52 -3
-78 13 -53 32 53 94 434 113 697 16 218 14 331 -8 463 -24 146 -46 186 -81
143 -11 -13 -16 -6 -29 49 -9 35 -24 72 -34 81 -9 10 -17 34 -18 54 -1 47 -13
90 -21 77 -3 -6 -9 -25 -13 -43 -6 -27 -9 -31 -21 -21 -20 16 -44 -6 -44 -40
0 -26 -31 -136 -42 -146 -9 -9 -40 115 -37 153 1 21 1 45 0 55 -1 21 -21 23
-21 2 0 -8 -4 -15 -10 -15 -17 0 -28 34 -35 100 -14 150 -17 170 -26 170 -7 0
-8 -30 -4 -82z"/>
<path d="M8738 19787 c-5 -10 -8 -49 -8 -85 1 -50 3 -63 11 -50 5 10 9 48 7
85 -2 43 -6 61 -10 50z"/>
<path d="M12750 19759 c0 -19 5 -41 10 -49 7 -10 8 -1 4 30 -8 56 -14 64 -14
19z"/>
<path d="M8620 19751 c-5 -11 -10 -40 -10 -65 0 -24 -5 -57 -10 -72 -6 -15
-12 -84 -13 -153 -2 -106 0 -126 13 -126 16 0 20 22 39 235 13 145 14 200 1
200 -5 0 -14 -9 -20 -19z"/>
<path d="M9942 19695 c0 -11 4 -33 8 -50 l8 -30 0 30 c0 17 -3 39 -8 50 l-9
20 1 -20z"/>
<path d="M8311 19498 c0 -31 3 -37 8 -24 7 18 3 66 -5 66 -2 0 -4 -19 -3 -42z"/>
<path d="M19156 19274 c-10 -27 -33 -74 -51 -104 -18 -30 -39 -77 -48 -105
-27 -86 -75 -305 -92 -420 -9 -60 -23 -134 -32 -164 -10 -34 -13 -74 -10 -110
3 -33 -3 -107 -14 -179 -22 -135 -21 -167 4 -109 19 44 39 48 53 10 l11 -28
10 25 c55 133 58 143 114 343 5 21 14 35 19 32 6 -3 5 -16 0 -31 -6 -14 -10
-44 -10 -66 0 -52 -33 -194 -76 -330 -32 -102 -44 -174 -26 -153 5 6 17 36 26
68 10 31 21 57 26 57 13 0 60 52 54 61 -9 15 16 87 40 116 13 15 31 53 41 83
10 30 20 49 23 42 6 -20 -16 -99 -44 -154 -14 -28 -23 -57 -19 -65 3 -9 -2
-62 -11 -119 -10 -57 -15 -107 -12 -110 11 -10 53 25 72 61 11 19 23 35 28 35
9 0 5 -116 -8 -219 -4 -29 -2 -41 5 -36 6 3 11 37 11 75 0 51 6 81 22 114 12
25 25 43 29 41 4 -3 4 -33 2 -69 -6 -73 10 -123 23 -71 16 68 30 42 34 -65 1
-49 3 -52 12 -27 5 15 14 27 19 27 26 0 -10 -180 -51 -255 -30 -53 -76 -192
-68 -201 3 -2 25 43 48 101 23 58 53 121 65 140 13 18 26 44 30 56 12 43 27
79 34 79 10 0 5 -79 -8 -152 -19 -96 -9 -104 23 -20 29 75 53 98 42 40 -17
-92 -19 -111 -9 -105 6 4 18 28 28 54 10 26 31 68 47 92 17 27 28 59 28 80 1
20 7 50 15 66 l15 30 -7 -35 c-4 -19 -7 -52 -5 -72 1 -21 3 -55 4 -75 2 -21
-1 -50 -5 -65 -12 -43 8 -33 37 18 69 124 138 317 151 424 2 19 9 53 15 75 26
92 39 165 45 253 7 81 6 92 -9 92 -12 0 -16 9 -16 36 0 19 -4 43 -9 53 -5 9
-12 35 -14 57 -13 104 -20 134 -33 134 -15 0 -16 4 -15 70 1 54 -17 80 -55 83
-26 2 -32 -4 -61 -63 -17 -35 -36 -66 -42 -68 -15 -5 -3 78 21 147 26 78 24
90 -10 58 -16 -15 -31 -24 -35 -21 -4 4 -4 31 -1 61 4 29 4 53 1 53 -3 0 -17
-20 -31 -45 -15 -25 -31 -45 -36 -45 -17 0 -11 83 9 126 41 91 34 148 -10 76
-39 -63 -69 -126 -69 -147 0 -11 -4 -26 -9 -34 -13 -20 -31 18 -20 44 17 43 8
60 -11 21 -11 -22 -29 -50 -40 -62 -12 -11 -26 -38 -31 -59 -6 -21 -19 -50
-30 -64 -10 -14 -25 -55 -33 -91 -15 -74 -43 -146 -52 -137 -4 4 -2 19 4 34
11 30 24 131 28 230 2 46 9 71 28 100 25 38 51 156 27 123 -6 -8 -16 -31 -21
-50 -16 -56 -25 -66 -45 -50 -15 13 -16 29 -10 138 8 143 -2 154 -36 39 -28
-91 -95 -233 -114 -241 -8 -3 -15 -14 -15 -25 0 -11 -5 -23 -12 -27 -14 -9 -5
76 10 85 5 3 15 31 22 61 7 30 19 68 27 83 17 33 75 265 70 280 -2 6 -11 -12
-21 -39z m245 -591 c-17 -54 -38 -109 -46 -123 l-14 -25 -1 24 c-1 67 75 269
87 234 3 -7 -9 -57 -26 -110z m-221 -734 c0 -11 -5 -30 -11 -41 -16 -30 -30
-3 -17 33 12 34 28 38 28 8z"/>
<path d="M19443 19219 c-11 -14 -30 -129 -20 -129 8 0 39 110 35 127 -3 14 -5
14 -15 2z"/>
<path d="M18197 19148 c-3 -18 -1 -37 4 -42 6 -6 9 -2 10 10 0 10 2 29 5 42 2
12 0 22 -5 22 -5 0 -11 -15 -14 -32z"/>
<path d="M18527 19173 c-11 -19 -18 -93 -8 -93 5 0 13 20 17 45 6 43 2 66 -9
48z"/>
<path d="M18738 19170 c-6 -14 -12 -39 -37 -152 -14 -61 -15 -119 -1 -98 5 8
10 25 10 37 0 13 9 50 21 82 12 36 19 77 17 103 -2 24 -6 36 -10 28z"/>
<path d="M17851 19100 c-6 -28 -16 -83 -22 -123 -18 -118 -42 -142 -53 -54 -9
68 -27 137 -35 137 -8 0 -31 -119 -31 -161 0 -44 30 -89 63 -96 15 -3 27 -11
27 -19 0 -7 11 -25 25 -40 14 -15 25 -35 25 -44 0 -21 35 -54 48 -46 6 3 17
-25 27 -62 19 -78 48 -109 72 -76 7 10 13 26 13 36 0 10 5 18 11 18 7 0 9 -11
5 -32 -4 -18 -9 -80 -13 -137 -5 -83 -3 -103 7 -99 28 9 60 156 65 293 13 364
6 455 -24 321 -7 -31 -16 -58 -21 -61 -16 -10 -20 46 -9 111 8 45 8 69 1 76
-7 7 -12 3 -17 -13 -4 -13 -20 -35 -35 -49 -18 -17 -30 -41 -35 -70 -15 -92
-24 -74 -26 50 -1 121 -2 123 -14 80 -7 -25 -16 -79 -20 -122 -4 -42 -13 -85
-20 -95 -13 -16 -14 -13 -14 32 0 28 4 104 9 170 4 66 6 121 5 123 -2 2 -8
-20 -14 -48z"/>
<path d="M18867 19119 c-4 -13 -7 -35 -8 -49 -1 -37 -34 -133 -47 -138 -13 -4
-15 8 -12 82 1 33 -2 46 -9 41 -22 -13 -61 -104 -76 -176 -9 -47 -22 -79 -34
-89 -22 -18 -51 -134 -52 -212 0 -29 -5 -75 -10 -103 -20 -97 -21 -115 -11
-128 5 -6 13 -50 17 -97 8 -95 16 -89 36 28 7 37 25 92 40 123 16 31 29 61 29
67 0 6 10 16 21 23 21 11 21 10 15 -27 -4 -22 -16 -75 -28 -119 -11 -44 -19
-87 -19 -95 5 -57 0 -173 -10 -212 -6 -26 -9 -53 -6 -60 4 -14 37 87 38 119 1
37 44 138 59 138 9 0 19 17 26 45 6 25 25 71 43 101 18 32 31 70 31 90 0 19 5
52 10 74 13 54 21 281 9 240 -16 -52 -50 -226 -62 -319 -8 -59 -17 -91 -26
-94 -11 -4 -12 10 -7 74 4 44 13 106 21 139 15 70 28 183 31 275 2 36 6 106 9
157 4 53 3 98 -3 108 -8 15 -10 14 -15 -6z"/>
<path d="M18260 19088 c0 -18 -7 -58 -15 -88 -8 -30 -20 -93 -25 -140 -14
-107 -20 -131 -31 -124 -5 3 -9 17 -9 32 0 45 -15 58 -34 31 -9 -13 -16 -33
-16 -44 0 -12 -7 -62 -14 -111 -16 -98 -28 -586 -14 -560 4 8 13 63 19 123 6
59 16 117 22 128 6 11 14 34 18 50 5 20 7 -1 8 -62 1 -129 28 -141 51 -23 6
30 18 71 27 90 22 50 32 85 48 172 14 78 46 161 66 174 11 7 8 -71 -7 -157 -4
-25 -1 -39 10 -48 13 -11 16 -7 24 26 45 190 57 235 63 239 13 7 20 -33 14
-73 -26 -166 -54 -301 -71 -348 -11 -27 -17 -86 -19 -190 -2 -82 -1 -127 1
-100 5 72 23 191 40 260 38 164 84 391 98 483 8 56 27 135 41 175 26 78 32
117 15 117 -5 0 -10 -5 -10 -10 0 -17 -59 -70 -73 -65 -24 9 -33 -11 -62 -127
-30 -123 -52 -158 -42 -65 8 65 0 102 -19 87 -7 -6 -16 -25 -19 -41 -8 -37
-23 -37 -30 -1 -3 15 -10 43 -15 62 -4 19 -11 63 -15 98 -7 65 -25 86 -25 30z
m232 -103 c-6 -34 -12 -32 -12 6 0 16 4 28 9 25 4 -3 6 -17 3 -31z"/>
<path d="M17662 18935 c0 -16 2 -22 5 -12 2 9 2 23 0 30 -3 6 -5 -1 -5 -18z"/>
<path d="M6227 18880 c3 -11 7 -20 9 -20 2 0 4 9 4 20 0 11 -4 20 -9 20 -5 0
-7 -9 -4 -20z"/>
<path d="M18575 18857 c-10 -18 -24 -44 -31 -58 -13 -29 -30 -143 -26 -174 2
-11 -2 -37 -9 -57 -13 -41 -5 -84 11 -58 6 8 10 29 10 47 0 18 4 42 10 55 5
13 14 49 20 81 7 34 17 57 24 57 15 0 32 118 19 131 -4 4 -17 -6 -28 -24z"/>
<path d="M18558 18514 c-5 -4 -8 -15 -8 -25 0 -10 -8 -22 -17 -28 -15 -8 -15
-12 -4 -38 l14 -28 14 34 c14 34 15 100 1 85z"/>
<path d="M17315 18479 c-9 -17 -15 -42 -13 -57 l3 -27 17 25 c21 32 33 90 19
90 -6 0 -18 -14 -26 -31z"/>
<path d="M17113 18391 c-14 -73 -17 -78 -37 -62 -16 14 -21 8 -31 -36 -7 -34
-24 -54 -26 -31 -1 7 -2 33 -3 57 0 24 -6 46 -13 48 -16 6 -49 -61 -58 -117
-11 -65 -48 -160 -53 -135 -2 11 -11 28 -21 39 -12 13 -16 39 -17 95 -1 88
-18 161 -39 161 -8 0 -20 -20 -29 -50 -8 -28 -24 -62 -36 -77 -11 -14 -20 -32
-20 -39 0 -7 -5 -36 -11 -65 -13 -59 -23 -52 -33 24 -4 26 -12 47 -17 47 -15
0 -39 -64 -39 -104 0 -47 -17 -55 -45 -20 l-23 29 -21 -25 c-11 -14 -20 -29
-21 -33 0 -5 -4 -6 -9 -3 -14 9 -22 -23 -28 -107 -5 -62 -10 -80 -24 -88 -16
-8 -18 -20 -14 -102 2 -50 9 -144 14 -207 6 -63 13 -150 15 -193 7 -113 27
-241 36 -227 12 19 21 -20 19 -82 -3 -79 12 -280 23 -300 7 -14 21 -18 61 -18
47 0 231 -40 244 -53 3 -3 -4 -43 -15 -89 -12 -46 -26 -112 -32 -148 -6 -36
-19 -108 -30 -160 -11 -52 -31 -158 -45 -235 -15 -77 -46 -241 -70 -365 -67
-342 -92 -480 -120 -655 -15 -88 -39 -227 -55 -310 -16 -82 -45 -247 -65 -365
-33 -203 -60 -363 -104 -615 -11 -60 -21 -134 -24 -163 -5 -60 4 -66 83 -60
41 3 43 5 56 48 7 25 23 106 34 180 11 74 32 205 45 290 13 85 28 184 34 220
5 36 23 146 40 245 17 99 37 230 46 290 48 331 127 770 225 1255 34 166 50
252 95 520 14 80 12 77 63 84 46 6 141 -8 250 -36 l43 -11 -7 -56 c-3 -31 -35
-195 -69 -366 -35 -170 -70 -356 -79 -413 -9 -56 -30 -162 -46 -235 -26 -118
-66 -326 -120 -612 -11 -55 -24 -134 -29 -175 -29 -202 -55 -366 -77 -475 -14
-66 -29 -147 -34 -180 -5 -33 -23 -124 -39 -201 -17 -78 -38 -202 -47 -275
-23 -182 -21 -179 -88 -179 -30 0 -90 8 -133 17 -45 9 -112 16 -158 14 -87 -2
-105 -13 -105 -60 0 -38 -53 -143 -95 -190 -21 -23 -35 -44 -33 -47 3 -3 49
-10 103 -16 123 -13 129 -9 148 113 11 66 20 94 42 121 l28 35 66 -34 c36 -19
81 -44 99 -55 61 -38 78 -107 43 -183 -24 -54 -33 -93 -22 -99 5 -3 27 8 50
24 22 17 45 30 51 30 18 0 32 78 29 163 -2 48 -1 87 2 87 11 0 58 143 69 210
14 85 27 146 30 140 12 -31 3 -131 -26 -300 -10 -52 -19 -144 -20 -205 l-4
-110 21 60 c14 42 19 78 16 120 -2 35 4 95 14 143 10 46 25 134 33 195 9 62
20 128 26 147 5 19 10 54 10 78 0 38 105 684 129 795 5 23 17 98 26 167 31
248 43 316 64 362 21 46 40 183 61 438 4 58 15 134 23 170 8 36 18 101 22 145
3 44 15 125 25 180 28 145 70 425 70 467 0 57 84 270 140 353 11 17 20 36 20
44 0 14 32 88 121 282 27 59 69 162 94 230 24 68 56 156 70 194 47 123 67 215
65 295 -1 41 -2 100 -1 131 1 40 -4 60 -15 70 -13 10 -17 10 -25 -2 -6 -9 -9
3 -9 38 0 53 -11 70 -42 65 -11 -2 -18 7 -23 28 -8 36 -8 36 -43 10 -45 -34
-62 -19 -62 54 l0 61 -35 -55 c-19 -30 -40 -55 -47 -55 -8 0 -17 21 -22 53 -6
29 -14 51 -19 49 -6 -2 -16 -22 -23 -46 -12 -41 -41 -74 -56 -65 -11 7 -35
-46 -58 -127 -24 -90 -46 -117 -33 -44 14 85 10 179 -7 182 -22 4 -68 -109
-76 -182 -3 -33 -12 -73 -19 -90 -13 -27 -13 -20 -9 65 3 52 10 119 16 148 10
53 4 79 -11 53 -13 -21 -28 -5 -36 36 -6 35 -8 36 -20 19 -8 -10 -19 -44 -26
-75 l-12 -56 -19 55 c-11 30 -23 75 -26 100 l-7 45 -12 -64z m-589 -1044 c-3
-22 -10 -35 -14 -30 -14 14 -19 136 -7 158 10 17 12 13 19 -35 4 -30 5 -72 2
-93z"/>
<path d="M5570 18216 c0 -2 7 -17 15 -32 16 -30 19 -25 9 14 -5 18 -24 33 -24
18z"/>
<path d="M10517 18165 c-4 -33 -16 -109 -27 -170 -11 -60 -26 -155 -34 -210
-8 -55 -23 -147 -32 -205 -28 -175 -18 -891 15 -1040 l8 -35 6 45 c4 25 8 232
11 460 2 228 9 467 15 530 6 63 15 189 21 280 6 91 15 206 21 255 6 50 9 104
7 120 -3 21 -6 13 -11 -30z"/>
<path d="M9708 18108 c-6 -50 6 -85 15 -47 6 25 2 77 -6 85 -3 3 -7 -14 -9
-38z"/>
<path d="M18870 17990 c-6 -23 -9 -44 -7 -46 2 -3 9 14 15 38 6 23 9 44 7 46
-2 2 -9 -15 -15 -38z"/>
<path d="M19177 17783 c-4 -3 -7 -22 -6 -42 l1 -36 9 39 c9 39 8 52 -4 39z"/>
<path d="M19167 17664 c-4 -4 -7 -17 -7 -28 1 -19 1 -20 11 -3 11 19 8 43 -4
31z"/>
<path d="M19021 17584 c0 -11 3 -14 6 -6 3 7 2 16 -1 19 -3 4 -6 -2 -5 -13z"/>
<path d="M19566 17415 c-3 -8 -1 -15 4 -15 6 0 10 7 10 15 0 8 -2 15 -4 15 -2
0 -6 -7 -10 -15z"/>
<path d="M19442 16898 c-44 -90 -87 -180 -96 -202 -13 -32 -20 -37 -38 -33
-13 3 -41 10 -63 16 -41 10 -148 29 -220 38 -22 3 -50 12 -62 20 -12 8 -34 13
-50 11 l-28 -4 28 -14 c32 -16 34 -37 7 -90 -11 -22 -20 -44 -20 -50 0 -6 -21
-68 -47 -138 -44 -118 -51 -130 -103 -177 -166 -151 -229 -229 -325 -405 -32
-58 -66 -116 -75 -130 -31 -44 -172 -292 -343 -600 -44 -79 -96 -169 -115
-200 -130 -202 -388 -852 -486 -1225 -42 -156 -57 -208 -67 -230 -6 -11 -16
-48 -23 -83 -11 -56 -11 -64 5 -89 22 -33 9 -45 -39 -37 -30 6 -33 4 -47 -32
-9 -22 -22 -51 -30 -65 -8 -14 -25 -64 -39 -112 -31 -106 -62 -168 -87 -174
-14 -4 -19 -14 -19 -38 0 -18 -9 -61 -19 -96 -10 -35 -36 -125 -56 -199 -33
-123 -49 -175 -100 -340 -10 -30 -24 -80 -32 -110 -7 -30 -20 -61 -28 -70 -8
-9 -21 -42 -29 -75 -9 -33 -22 -76 -30 -95 -8 -19 -26 -84 -40 -145 -14 -60
-39 -145 -56 -188 -17 -44 -44 -120 -61 -170 -52 -157 -54 -151 -39 114 10
168 28 278 57 333 20 39 107 286 246 700 22 68 42 149 45 185 3 41 14 82 29
110 12 24 23 50 23 56 0 7 8 16 18 20 15 6 14 9 -11 31 -31 26 -69 31 -84 12
-6 -7 -13 -36 -17 -65 -4 -29 -40 -152 -80 -275 -40 -123 -83 -261 -95 -308
-26 -107 -81 -393 -81 -425 0 -13 -4 -27 -10 -30 -22 -14 4 338 42 567 10 59
9 70 -5 85 -12 14 -14 26 -7 58 5 22 18 87 30 145 11 58 27 140 35 184 25 129
22 149 -26 184 -29 22 -61 34 -112 42 -40 7 -110 21 -156 31 -86 20 -163 17
-142 -4 17 -17 13 -25 -18 -32 -63 -14 -69 -35 -134 -415 -12 -71 -14 -75 -45
-84 -35 -10 -41 -21 -16 -30 12 -5 15 -14 11 -39 -4 -17 -9 -63 -12 -102 -3
-38 -13 -101 -20 -140 -17 -83 -59 -314 -80 -440 -52 -308 -80 -462 -100 -550
-13 -55 -35 -172 -49 -260 -14 -88 -30 -182 -35 -210 -6 -27 -17 -97 -26 -155
-24 -155 -44 -276 -60 -355 -15 -74 -39 -215 -75 -455 -51 -332 -59 -361 -120
-421 -26 -27 -53 -49 -58 -49 -5 0 -22 -30 -38 -67 -15 -38 -31 -72 -35 -78
-4 -5 -10 -24 -14 -42 -6 -29 -60 -91 -160 -182 -20 -18 -23 -26 -13 -32 18
-12 725 -11 1088 1 419 14 950 38 1095 50 66 5 197 14 290 20 94 6 217 16 275
21 58 5 164 14 235 20 139 11 186 21 205 44 7 8 30 20 52 25 73 20 22 57 -96
70 -98 11 -155 5 -178 -20 -25 -27 -28 -25 -17 12 6 22 5 43 -3 65 -11 29 -7
43 36 155 27 68 55 137 62 153 7 17 34 91 60 165 26 74 65 185 86 245 22 61
43 124 48 140 4 17 17 49 29 72 12 23 21 47 21 54 0 6 7 25 15 42 26 57 76
181 90 222 7 22 25 67 40 100 15 33 51 120 81 193 29 72 67 158 84 190 16 31
30 61 30 65 0 4 39 86 86 183 81 164 85 177 74 205 -13 31 -105 93 -273 184
-48 26 -87 53 -87 60 0 7 8 23 18 36 22 29 117 198 162 289 35 73 56 100 77
100 26 0 181 -169 199 -216 23 -61 15 -102 -46 -237 -50 -111 -59 -152 -31
-152 14 0 26 19 124 209 67 128 75 153 58 171 -5 6 -11 23 -13 39 -2 25 -19
40 -101 96 -54 36 -123 92 -153 124 -52 56 -54 60 -39 80 8 12 33 57 56 100
23 44 50 92 61 107 11 15 17 32 14 38 -33 54 131 -24 206 -97 26 -25 53 -61
59 -80 23 -69 -16 -178 -77 -214 -40 -23 -42 -31 -12 -52 31 -22 42 -20 72 12
25 26 146 253 146 273 0 5 -12 15 -27 21 -16 6 -51 34 -79 62 -35 35 -85 68
-160 106 -64 32 -110 62 -112 72 -2 9 15 34 36 55 44 43 67 84 112 200 32 79
570 1164 669 1348 29 55 76 143 103 195 210 400 227 430 348 620 96 149 163
240 294 395 79 93 115 158 233 419 32 71 65 134 75 139 20 13 74 -9 158 -64
74 -49 100 -75 100 -103 0 -22 -103 -233 -152 -312 -14 -21 -44 -77 -67 -124
-24 -47 -47 -90 -51 -95 -9 -11 -160 -284 -160 -290 0 -2 -16 -32 -36 -67 -20
-34 -62 -112 -94 -173 -31 -60 -67 -128 -80 -150 -33 -59 -147 -275 -206 -390
-27 -55 -99 -197 -159 -315 -60 -118 -144 -280 -188 -358 -43 -79 -88 -163
-99 -185 -10 -23 -33 -64 -49 -91 -17 -27 -53 -95 -81 -150 -29 -56 -77 -144
-108 -196 -31 -52 -71 -124 -90 -160 -56 -111 -97 -186 -114 -211 -13 -22 -14
-28 -2 -44 34 -47 121 92 551 885 74 137 324 633 433 860 174 362 351 721 436
885 14 28 43 86 64 130 21 44 62 121 90 172 28 51 70 126 93 169 23 42 61 108
85 147 24 39 44 80 44 92 0 11 -19 39 -42 62 -45 44 -205 133 -238 133 -10 0
-21 4 -24 9 -7 10 -148 61 -171 61 -14 0 -12 -5 9 -21 31 -24 33 -57 7 -91
-35 -44 -194 -375 -211 -439 -8 -30 -22 -48 -55 -71 -96 -68 -291 -346 -545
-778 -111 -188 -210 -361 -210 -366 0 -1 -15 -29 -34 -61 -18 -32 -100 -188
-181 -348 -81 -159 -180 -353 -219 -430 -104 -203 -239 -489 -270 -572 -28
-72 -95 -163 -122 -163 -18 0 -4 38 30 83 13 18 29 50 35 72 6 22 19 56 29 75
11 19 25 53 32 75 7 22 42 101 78 175 35 74 88 185 117 245 28 61 107 221 174
356 66 135 121 251 121 257 0 5 -6 12 -12 15 -22 7 199 437 225 437 7 0 -7
-30 -33 -70 -15 -24 -120 -250 -120 -260 0 -5 -6 -15 -13 -22 -17 -17 -47 -78
-39 -78 10 0 69 103 157 275 42 83 83 157 89 165 7 8 28 49 48 90 19 42 76
143 125 225 105 174 220 389 247 458 20 54 18 106 -8 158 -9 18 -16 42 -16 55
0 27 -27 54 -89 91 -70 41 -121 23 -165 -57 -17 -30 -85 -219 -149 -410 -46
-140 -130 -358 -196 -515 -21 -49 -44 -112 -51 -140 -20 -75 -88 -238 -105
-251 -22 -16 -65 -120 -65 -157 0 -40 -43 -168 -74 -222 -13 -22 -36 -69 -51
-105 -15 -36 -43 -97 -61 -137 -19 -39 -34 -76 -34 -82 0 -9 -62 -150 -121
-277 -30 -64 -78 -177 -108 -254 -30 -75 -55 -123 -66 -122 -21 2 -16 35 14
92 30 58 39 90 23 90 -4 0 -25 -39 -46 -87 -29 -65 -39 -101 -39 -137 0 -26
-5 -60 -13 -75 -8 -14 -14 -53 -14 -85 0 -41 -5 -65 -17 -78 -28 -31 2 -20 37
14 22 20 35 27 38 19 2 -7 27 -22 56 -35 87 -39 102 -80 24 -66 -28 6 -50 17
-64 35 -22 28 -22 28 -33 6 -19 -34 -89 -74 -118 -66 -19 4 -32 -2 -59 -29
-19 -19 -34 -40 -34 -48 0 -7 13 2 29 21 18 22 30 30 35 23 8 -13 -27 -102
-56 -144 -19 -28 -19 -28 1 -57 14 -19 39 -36 70 -46 66 -22 82 -41 42 -50
-47 -10 -70 -47 -183 -295 -29 -64 -73 -120 -94 -120 -23 0 -16 24 30 101 122
206 168 298 161 320 -10 31 -33 22 -61 -23 -40 -63 -152 -299 -156 -328 -2
-14 -10 -25 -18 -25 -23 0 -13 59 21 132 16 34 29 66 29 71 0 6 16 33 36 62
40 58 39 80 -6 80 -27 0 -33 -6 -59 -62 -17 -35 -44 -100 -61 -145 -24 -63
-39 -86 -58 -96 -21 -9 -51 -61 -135 -232 -315 -637 -726 -1452 -777 -1540
-77 -134 -219 -392 -266 -485 -49 -97 -55 -70 -14 64 16 54 30 118 30 142 0
75 80 264 170 399 14 22 42 74 62 115 19 41 80 158 135 260 170 313 207 380
373 655 36 61 82 145 102 188 21 42 48 92 61 110 14 17 41 66 62 107 45 92 72
138 98 167 24 28 15 43 -27 43 -29 0 -33 -3 -33 -25 0 -14 -26 -63 -57 -109
-31 -47 -56 -87 -56 -89 0 -2 -22 -43 -49 -90 -28 -47 -69 -123 -93 -169 -40
-78 -167 -303 -268 -474 -25 -42 -68 -117 -95 -167 -28 -51 -70 -128 -95 -172
-24 -44 -55 -101 -69 -127 -27 -49 -41 -60 -41 -33 0 18 19 57 82 170 24 44
75 139 113 210 37 72 90 170 117 218 27 49 57 110 68 135 10 26 30 70 44 98
14 29 26 60 26 69 0 26 41 93 67 110 13 9 23 21 23 27 0 24 154 315 195 368
41 54 54 101 57 205 2 66 67 174 119 195 23 10 59 48 59 63 0 1 -16 1 -35 -1
-19 -2 -56 3 -81 12 -26 9 -58 16 -70 16 -21 0 -22 -2 -12 -37 5 -21 14 -42
19 -48 31 -32 -27 -251 -61 -230 -16 10 -32 -28 -60 -142 -36 -148 -58 -212
-80 -238 -10 -11 -21 -35 -25 -52 -3 -18 -11 -36 -16 -39 -6 -3 -15 -18 -21
-32 l-10 -27 -11 23 c-9 19 -4 43 22 125 18 56 42 112 53 124 16 17 21 39 24
105 l4 82 -33 -32 c-18 -18 -36 -32 -39 -32 -10 0 9 69 26 95 9 14 32 31 50
39 19 8 42 27 52 43 10 15 33 45 51 66 21 24 33 47 33 66 0 40 -17 48 -25 12
-3 -15 -17 -38 -30 -50 -14 -11 -25 -27 -25 -35 0 -19 -38 -46 -56 -39 -22 8
-64 -25 -79 -61 -8 -18 -24 -40 -37 -48 -17 -11 -31 -42 -52 -114 -16 -55 -46
-133 -68 -175 -50 -99 -50 -108 4 -104 54 4 68 -2 68 -30 0 -25 4 -25 -88 3
-63 20 -86 0 -110 -93 -6 -22 -24 -79 -41 -126 -17 -47 -60 -194 -95 -325 -36
-132 -76 -272 -90 -313 -33 -95 -56 -207 -56 -271 0 -36 -9 -69 -32 -116 -18
-37 -34 -61 -36 -55 -2 5 8 48 22 95 14 46 26 91 26 101 0 16 11 69 67 310 26
114 154 606 197 755 13 47 38 144 55 215 17 72 60 221 96 330 36 110 74 234
85 275 11 41 29 102 40 135 11 33 27 87 35 120 10 45 23 71 51 100 40 43 100
165 141 285 14 41 34 85 44 99 10 13 19 32 19 41 0 10 25 67 57 126 125 242
187 366 252 504 72 155 142 273 149 252 2 -7 0 -18 -6 -25 -12 -15 -27 -90
-36 -177 -4 -40 -59 -231 -83 -287 -8 -21 -31 -92 -49 -158 -18 -66 -43 -154
-54 -195 -12 -41 -40 -133 -63 -205 -42 -129 -42 -130 -45 -81 -2 28 3 68 12
90 8 23 34 109 57 191 23 83 45 157 50 166 4 9 26 74 48 145 21 71 57 176 79
233 22 58 38 111 35 118 -10 25 -22 1 -67 -128 -24 -68 -60 -164 -81 -214 -39
-92 -159 -422 -176 -485 -6 -19 -26 -84 -44 -145 -19 -60 -48 -155 -64 -211
-29 -93 -81 -194 -102 -194 -5 0 -9 -4 -9 -9 0 -5 29 -11 65 -13 70 -3 75 0
75 51 0 36 19 92 37 111 12 13 13 9 7 -27 -9 -58 9 -56 36 4 24 54 88 263 151
493 11 41 35 120 53 175 18 55 46 141 61 190 56 183 87 281 105 325 10 25 30
90 44 145 15 55 41 141 57 190 17 50 42 124 56 165 14 41 37 111 53 155 62
179 102 307 134 430 38 147 50 188 94 330 72 233 144 480 181 620 22 83 51
188 65 235 14 46 24 86 22 87 -5 5 -51 -127 -145 -412 -51 -154 -109 -320
-128 -370 -19 -49 -63 -173 -98 -275 -62 -179 -168 -460 -235 -625 -107 -260
-140 -336 -210 -485 -104 -219 -143 -304 -171 -370 -13 -30 -59 -125 -102
-209 -52 -102 -77 -163 -74 -178 5 -28 3 -28 -75 -4 -319 99 -360 117 -313
135 11 4 15 21 15 58 0 29 6 73 14 98 28 89 136 378 195 523 34 81 87 211 120
290 32 78 80 189 106 247 107 236 234 552 303 751 94 269 127 353 204 514 95
199 134 265 234 398 82 109 99 138 138 247 93 255 91 250 135 250 20 0 82 -13
139 -29 l103 -29 14 22 c7 11 29 73 49 136 19 63 44 144 54 180 24 76 35 130
29 130 -3 0 -41 -73 -85 -162z m13 -2838 c-9 -18 -18 -30 -21 -28 -2 3 3 19
12 37 9 18 18 30 21 28 2 -3 -3 -19 -12 -37z m-41 -72 c-3 -13 -17 -46 -30
-74 -13 -28 -24 -56 -24 -61 0 -6 -6 -15 -13 -22 -13 -10 -41 -64 -86 -161
-11 -25 -25 -52 -31 -60 -10 -15 -34 -71 -55 -127 -14 -37 -76 -136 -81 -130
-3 2 3 21 12 43 22 55 284 586 297 602 15 18 19 15 11 -10z m-1960 -604 c19
-19 20 -26 4 -42 -23 -23 -48 -14 -48 16 0 44 17 54 44 26z m1606 -114 c-6
-12 -14 -19 -17 -16 -4 3 0 18 8 32 7 14 15 21 17 15 2 -5 -2 -20 -8 -31z
m-1545 -2 c14 -6 25 -14 25 -17 0 -3 -39 -26 -88 -51 l-87 -45 -38 -78 c-21
-43 -45 -106 -53 -140 -21 -79 -20 -78 -49 -65 -26 12 -31 27 -16 44 4 5 17
31 27 58 10 28 32 70 50 96 17 25 41 78 54 117 18 59 27 74 49 82 37 13 95 13
126 -1z m-248 -80 c-3 -8 -6 -5 -6 6 -1 11 2 17 5 13 3 -3 4 -12 1 -19z m1743
-5 c-1 -5 -10 -24 -21 -43 -11 -19 -17 -26 -13 -15 3 11 9 30 11 43 5 20 24
33 23 15z m-1271 -28 c30 -8 69 -24 86 -37 46 -33 135 -133 135 -151 0 -26
-78 -196 -117 -254 -29 -44 -40 -54 -57 -50 -59 14 -336 136 -336 147 0 3 17
22 38 42 23 22 44 55 55 89 10 30 37 93 59 142 46 97 45 97 137 72z m-1268
-90 c66 -23 141 -84 151 -123 6 -23 0 -86 -23 -220 -17 -103 -34 -191 -38
-195 -8 -8 -264 27 -282 38 -13 9 -11 36 12 170 11 66 26 158 34 205 19 123
27 140 68 140 18 0 53 -7 78 -15z m2363 -282 c-9 -62 -22 -89 -37 -74 -7 7 -5
26 8 66 23 68 39 72 29 8z m-64 -348 c0 -17 -17 -28 -30 -20 -7 4 -7 13 0 26
12 21 30 17 30 -6z m-80 -34 c0 -21 -9 -36 -35 -55 -42 -32 -46 -18 -15 44 24
48 50 53 50 11z"/>
<path d="M5581 16888 c-1 -26 22 -108 31 -108 4 0 0 24 -8 53 -20 70 -22 75
-23 55z"/>
<path d="M5646 16670 c3 -14 10 -32 15 -40 7 -13 8 -13 8 0 0 8 -6 26 -15 40
l-15 25 7 -25z"/>
<path d="M5670 16608 c0 -13 32 -110 45 -135 8 -15 15 -36 15 -46 0 -22 61
-179 67 -173 8 7 -105 337 -120 352 -4 4 -7 5 -7 2z"/>
<path d="M17456 16533 c-12 -68 -17 -146 -10 -176 7 -31 8 -31 14 -7 8 29 13
210 6 210 -2 0 -7 -12 -10 -27z"/>
<path d="M19346 16500 c-3 -16 -8 -45 -11 -62 l-5 -33 16 34 c21 46 29 91 16
91 -6 0 -13 -13 -16 -30z"/>
<path d="M16477 16447 c-4 -10 -7 -28 -6 -40 0 -21 1 -21 10 2 5 14 8 32 7 40
-3 13 -5 13 -11 -2z"/>
<path d="M20178 16268 c-8 -13 -24 -50 -36 -83 -39 -115 -139 -370 -161 -412
-27 -53 -13 -56 27 -5 37 46 66 104 129 257 100 241 97 233 83 250 -17 20 -25
19 -42 -7z"/>
<path d="M17880 16263 c-90 -8 -200 -36 -217 -55 -22 -24 -21 -114 1 -273 34
-242 41 -338 40 -580 -2 -277 -8 -323 -63 -505 -21 -69 -58 -204 -81 -300 -23
-96 -55 -218 -70 -270 -28 -98 -33 -115 -121 -430 -28 -102 -64 -231 -80 -288
-16 -57 -41 -126 -55 -154 -24 -48 -25 -53 -9 -64 39 -29 52 0 116 256 53 214
148 529 234 780 137 396 234 669 255 715 69 153 137 287 217 430 49 88 115
212 147 275 32 63 73 140 91 170 18 30 40 79 50 108 16 49 16 55 1 77 -9 14
-44 39 -77 56 -93 47 -234 66 -379 52z"/>
<path d="M19261 16193 c-1 -6 -4 -20 -7 -30 -5 -17 -5 -17 6 0 6 10 9 23 6 30
-3 9 -5 9 -5 0z"/>
<path d="M5860 16083 c0 -7 13 -52 29 -100 15 -49 45 -142 66 -208 36 -114 94
-268 95 -253 0 14 -41 161 -65 233 -13 39 -38 115 -55 170 -32 99 -69 182 -70
158z"/>
<path d="M19843 15733 c-36 -79 -76 -204 -68 -211 7 -7 9 -4 27 53 9 28 30 88
47 134 17 46 30 86 28 88 -2 2 -18 -27 -34 -64z"/>
<path d="M16327 15681 c-3 -16 -9 -42 -13 -57 -4 -20 -3 -26 4 -19 5 6 13 31
16 58 8 51 2 65 -7 18z"/>
<path d="M16311 15574 c0 -11 3 -14 6 -6 3 7 2 16 -1 19 -3 4 -6 -2 -5 -13z"/>
<path d="M16302 15520 c0 -14 2 -19 5 -12 2 6 2 18 0 25 -3 6 -5 1 -5 -13z"/>
<path d="M6149 15465 c19 -49 37 -74 27 -35 -13 46 -28 80 -36 80 -5 0 0 -20
9 -45z"/>
<path d="M6085 15400 c9 -46 56 -182 67 -194 14 -17 9 7 -23 110 -32 101 -57
150 -44 84z"/>
<path d="M7531 15364 c0 -11 3 -14 6 -6 3 7 2 16 -1 19 -3 4 -6 -2 -5 -13z"/>
<path d="M16255 15278 c-3 -24 -9 -52 -11 -63 -4 -16 -3 -17 4 -5 11 17 26
110 18 110 -2 0 -7 -19 -11 -42z"/>
<path d="M6230 15254 c0 -20 84 -266 88 -256 2 7 -1 25 -6 40 -6 15 -15 50
-21 77 -10 52 -46 145 -56 145 -3 0 -5 -3 -5 -6z"/>
<path d="M19610 15171 c-6 -12 -22 -56 -36 -97 -13 -42 -47 -126 -75 -187 -28
-62 -59 -134 -69 -162 -10 -27 -34 -88 -54 -134 -20 -46 -34 -86 -32 -88 8 -8
50 84 121 262 37 94 83 201 101 238 32 65 68 177 59 185 -2 2 -8 -6 -15 -17z"/>
<path d="M6174 15135 c4 -16 16 -47 25 -70 10 -22 24 -57 31 -78 6 -21 14 -36
17 -33 6 6 -56 188 -69 201 -7 7 -8 1 -4 -20z"/>
<path d="M7606 15127 c3 -10 9 -15 12 -12 3 3 0 11 -7 18 -10 9 -11 8 -5 -6z"/>
<path d="M7624 15080 c13 -74 49 -223 66 -275 32 -101 24 -17 -10 101 -16 56
-32 117 -35 135 -3 18 -10 39 -15 48 -8 12 -9 10 -6 -9z"/>
<path d="M17178 14990 c-3 -25 -13 -96 -22 -159 -10 -62 -15 -118 -13 -125 8
-24 52 279 45 311 -3 10 -7 -2 -10 -27z"/>
<path d="M6276 14865 c17 -71 93 -273 94 -250 0 18 -81 260 -91 270 -7 7 -8 0
-3 -20z"/>
<path d="M12899 14819 c-14 -14 -19 -28 -15 -42 3 -12 6 -25 6 -29 0 -11 59
-10 104 3 l38 11 -21 19 c-12 11 -21 24 -21 28 0 7 -52 31 -66 31 -2 0 -13 -9
-25 -21z"/>
<path d="M17116 14609 c-3 -17 -6 -46 -6 -63 1 -45 17 -12 21 41 4 51 -6 66
-15 22z"/>
<path d="M6382 14569 c6 -16 12 -28 14 -26 5 5 -13 57 -20 57 -3 0 0 -14 6
-31z"/>
<path d="M6480 14567 c0 -22 64 -187 72 -187 6 0 7 8 3 18 -4 9 -14 39 -22 65
-13 45 -53 122 -53 104z"/>
<path d="M6426 14457 c3 -10 9 -15 12 -12 3 3 0 11 -7 18 -10 9 -11 8 -5 -6z"/>
<path d="M11967 14240 c3 -129 7 -237 9 -239 7 -8 2 354 -6 414 -4 34 -6 -43
-3 -175z"/>
<path d="M16107 14445 c-14 -52 -17 -75 -8 -75 6 0 13 16 17 34 7 40 0 73 -9
41z"/>
<path d="M6459 14364 c25 -79 74 -214 92 -254 12 -25 30 -73 39 -107 10 -34
23 -70 29 -80 9 -16 10 -16 11 -1 0 22 -25 98 -55 163 -12 28 -25 64 -29 80
-10 39 -76 207 -87 219 -5 5 -5 -4 0 -20z"/>
<path d="M17080 14339 c-16 -29 -24 -149 -12 -179 8 -22 10 -18 16 35 3 33 10
84 14 113 9 54 1 67 -18 31z"/>
<path d="M16082 14300 c-7 -11 -8 -20 -3 -20 9 0 24 30 18 36 -1 2 -8 -6 -15
-16z"/>
<path d="M9602 14061 c-13 -85 -6 -121 23 -121 18 0 19 48 2 138 l-12 63 -13
-80z"/>
<path d="M17028 14074 c-5 -4 -8 -30 -7 -58 0 -44 2 -48 10 -26 11 27 8 96 -3
84z"/>
<path d="M16037 14053 c-3 -5 -1 -17 4 -28 7 -17 8 -17 8 8 1 27 -4 34 -12 20z"/>
<path d="M17022 13850 c0 -19 2 -27 5 -17 2 9 2 25 0 35 -3 9 -5 1 -5 -18z"/>
<path d="M15461 13728 c1 -42 3 -48 9 -28 12 36 12 80 0 80 -6 0 -10 -24 -9
-52z"/>
<path d="M15962 13573 c2 -20 9 -29 26 -31 31 -5 29 21 -4 43 -25 16 -25 16
-22 -12z"/>
<path d="M18448 13323 c-9 -21 -30 -85 -48 -143 -18 -58 -38 -121 -46 -140
-23 -61 -64 -218 -64 -244 0 -40 15 -31 30 17 7 23 16 53 21 67 4 14 17 65 29
113 11 48 24 96 30 106 12 23 72 252 67 257 -2 2 -11 -13 -19 -33z"/>
<path d="M9451 13288 c1 -24 5 -70 9 -103 7 -56 7 -53 9 43 0 62 -3 102 -9
102 -5 0 -10 -19 -9 -42z"/>
<path d="M15900 13258 c-23 -36 -23 -109 -1 -131 18 -18 33 11 27 53 -4 23 0
40 10 51 17 19 16 50 -3 56 -7 3 -22 -10 -33 -29z"/>
<path d="M9481 13035 c0 -16 4 -48 8 -70 l9 -40 0 50 c0 28 -3 59 -8 70 -7 17
-9 16 -9 -10z"/>
<path d="M15838 12930 c-4 -14 -8 -38 -7 -55 0 -30 0 -30 10 -5 6 13 9 38 7
55 -3 29 -3 30 -10 5z"/>
<path d="M18612 12744 c4 -21 22 -23 26 -1 2 10 -3 17 -13 17 -10 0 -15 -6
-13 -16z"/>
<path d="M18236 12653 c-36 -124 -45 -170 -39 -194 8 -29 23 -12 23 26 0 19 7
52 15 72 23 60 45 165 37 180 -5 8 -19 -25 -36 -84z"/>
<path d="M18676 12733 c-11 -11 -6 -23 9 -23 8 0 15 4 15 9 0 13 -16 22 -24
14z"/>
<path d="M15776 12622 c-5 -8 -36 -137 -36 -150 0 -3 6 2 13 13 20 26 37 10
37 -33 1 -34 2 -36 15 -18 8 10 17 46 21 78 4 36 12 62 20 65 18 7 18 23 0 23
-7 0 -19 7 -26 15 -13 16 -36 20 -44 7z"/>
<path d="M17930 12485 c0 -8 2 -15 4 -15 2 0 6 7 10 15 3 8 1 15 -4 15 -6 0
-10 -7 -10 -15z"/>
<path d="M15725 12430 c-4 -17 -5 -34 -2 -36 2 -3 7 10 11 27 3 18 4 34 2 36
-2 3 -7 -10 -11 -27z"/>
<path d="M15777 12390 c-3 -8 -12 -36 -21 -61 -10 -27 -14 -58 -10 -76 5 -23
1 -36 -14 -51 -20 -20 -29 -51 -56 -197 -13 -71 -21 -85 -47 -85 -13 0 -19 -7
-19 -21 0 -11 -14 -77 -31 -146 -20 -85 -27 -129 -20 -136 17 -17 36 8 50 65
7 29 32 112 56 184 24 73 49 160 55 195 7 35 23 97 36 138 13 40 24 89 24 108
0 19 4 42 9 52 6 10 6 23 1 31 -8 12 -10 12 -13 0z"/>
<path d="M18472 12388 c-18 -18 -14 -36 13 -54 27 -18 65 -11 65 12 0 18 -36
54 -53 54 -7 0 -18 -5 -25 -12z"/>
<path d="M15693 12274 c-26 -123 -27 -136 -13 -114 5 8 10 27 10 42 0 15 7 45
16 67 8 21 14 56 12 77 -2 31 -8 17 -25 -72z"/>
<path d="M17909 12268 c-12 -23 -30 -67 -40 -97 -19 -53 -19 -56 -1 -73 23
-24 43 -16 67 25 10 18 33 49 52 70 21 23 33 47 33 65 0 25 -6 31 -39 40 -51
16 -48 17 -72 -30z"/>
<path d="M12654 10902 c-7 -23 -16 -27 -99 -37 -62 -9 -113 -29 -121 -50 -4
-8 3 -37 14 -63 11 -26 46 -137 77 -247 31 -110 72 -249 90 -310 19 -60 56
-186 84 -280 27 -93 66 -222 86 -285 19 -63 44 -155 56 -205 21 -96 40 -135
64 -135 19 0 19 16 -5 190 -51 365 -64 453 -110 720 -59 344 -100 614 -100
656 0 16 -7 39 -15 50 -14 19 -15 19 -21 -4z"/>
<path d="M12266 10782 c-2 -4 9 -40 25 -81 16 -40 29 -80 29 -89 0 -9 18 -71
39 -137 21 -66 56 -174 76 -240 43 -142 66 -207 72 -202 4 5 -16 86 -66 262
-69 238 -88 307 -111 390 -13 44 -27 86 -33 93 -11 14 -24 16 -31 4z"/>
<path d="M12516 9990 c15 -80 88 -329 114 -392 16 -36 42 -118 59 -181 47
-174 100 -334 117 -348 25 -20 29 -1 10 49 -10 26 -49 135 -86 242 -38 107
-79 224 -92 260 -13 36 -30 92 -37 125 -25 120 -104 345 -85 245z"/>
<path d="M12627 9325 c3 -44 10 -85 14 -91 5 -6 16 -30 24 -53 21 -60 10 -76
-49 -72 -36 2 -46 -1 -46 -13 0 -10 15 -17 48 -21 26 -3 59 -9 74 -11 14 -3
29 -1 32 4 3 5 -8 47 -24 93 -16 46 -40 120 -53 164 l-25 80 5 -80z"/>
<path d="M12500 9288 c-100 -47 -112 -54 -117 -66 -11 -26 -7 -26 195 4 37 6
40 21 11 58 -24 31 -30 31 -89 4z"/>
<path d="M13078 9207 c2 -23 -1 -69 -6 -102 -6 -33 -7 -63 -3 -67 4 -4 21 -11
39 -14 31 -6 32 -5 32 26 0 30 -45 177 -59 192 -3 4 -5 -12 -3 -35z"/>
<path d="M12072 2883 c-108 -98 -416 -201 -825 -274 -95 -17 -174 -33 -177
-36 -5 -6 155 3 230 12 126 16 311 52 450 86 85 22 160 39 167 39 19 0 243 84
243 91 0 3 -13 29 -29 58 l-28 52 -31 -28z"/>
<path d="M18475 2696 c-33 -12 -69 -26 -80 -32 -11 -6 -51 -21 -90 -33 -38
-13 -97 -33 -130 -46 -33 -12 -114 -40 -180 -60 -66 -21 -133 -43 -150 -50
-16 -6 -61 -20 -100 -29 -82 -20 -108 -28 -235 -67 -125 -39 -359 -93 -490
-114 -58 -9 -150 -25 -205 -35 -55 -11 -149 -26 -210 -34 -98 -13 -175 -21
-525 -56 -374 -37 -358 -35 -305 -42 154 -20 860 -4 1175 27 30 3 117 10 193
15 75 6 183 19 240 29 56 11 154 29 218 40 326 60 456 113 706 289 124 86 141
100 213 175 49 52 44 54 -45 23z"/>
</g>
</svg>
